<?xml version="1.0" encoding="utf-8"?>
<!-- Generator: Adobe Illustrator 21.1.0, SVG Export Plug-In . SVG Version: 6.00 Build 0)  -->
<svg version="1.1" xmlns="http://www.w3.org/2000/svg" xmlns:xlink="http://www.w3.org/1999/xlink" x="0px" y="0px"
	 viewBox="0 0 108 53.5" enable-background="new 0 0 108 53.5" xml:space="preserve">
<g id="Camada_9">
	<rect fill="#00ADE4" width="108" height="53.5"/>
</g>
<g id="Camada_2">
	<g>
		<path fill="#009ACA" d="M31.2,17.1L30.7,17c0-0.4,0-0.8-0.1-1.3l0.5-0.2c0.3-0.1,0.5-0.5,0.4-0.8l-0.1-0.4
			c-0.1-0.3-0.5-0.5-0.8-0.4l-0.5,0.2c-0.2-0.4-0.4-0.7-0.7-1l0.3-0.4c0.2-0.3,0.2-0.6,0-0.9l-0.3-0.3c-0.3-0.2-0.6-0.2-0.9,0
			L28.2,12c-0.3-0.2-0.7-0.4-1.1-0.6l0.1-0.5c0.1-0.3-0.1-0.7-0.5-0.7l-0.4-0.1c-0.3-0.1-0.7,0.1-0.7,0.5l-0.1,0.5
			c-0.4,0-0.8,0-1.3,0.1L24,10.7c-0.1-0.3-0.5-0.5-0.8-0.4l-0.4,0.1c-0.3,0.1-0.5,0.5-0.4,0.8l0.2,0.5c-0.4,0.2-0.7,0.4-1,0.7
			l-0.4-0.3c-0.3-0.2-0.6-0.2-0.9,0L20,12.4c-0.2,0.3-0.2,0.6,0,0.9l0.4,0.3c-0.2,0.3-0.4,0.7-0.6,1.1l-0.5-0.1
			c-0.3-0.1-0.7,0.1-0.7,0.5l-0.1,0.4c-0.1,0.3,0.1,0.7,0.5,0.7l0.5,0.1c0,0.4,0,0.8,0.1,1.3l-0.5,0.2c-0.3,0.1-0.5,0.5-0.4,0.8
			l0.1,0.4c0.1,0.3,0.5,0.5,0.8,0.4l0.5-0.2c0.2,0.4,0.4,0.7,0.7,1l-0.3,0.4c-0.2,0.3-0.2,0.6,0,0.9l0.3,0.3c0.3,0.2,0.6,0.2,0.9,0
			l0.3-0.4c0.3,0.2,0.7,0.4,1.1,0.6L23,22.5c-0.1,0.3,0.1,0.7,0.5,0.7l0.4,0.1c0.3,0.1,0.7-0.1,0.7-0.5l0.1-0.5c0.4,0,0.8,0,1.3-0.1
			l0.2,0.5c0.1,0.3,0.5,0.5,0.8,0.4l0.4-0.1c0.3-0.1,0.5-0.5,0.4-0.8l-0.2-0.5c0.4-0.2,0.7-0.4,1-0.7l0.4,0.3c0.3,0.2,0.6,0.2,0.9,0
			l0.3-0.3c0.2-0.3,0.2-0.6,0-0.9l-0.4-0.3c0.2-0.3,0.4-0.7,0.6-1.1l0.5,0.1c0.3,0.1,0.7-0.1,0.7-0.5l0.1-0.4
			C31.7,17.5,31.5,17.2,31.2,17.1z M24.2,20.6c-2.2-0.5-3.5-2.6-3.1-4.7c0.5-2.2,2.6-3.5,4.7-3.1c2.2,0.5,3.5,2.6,3.1,4.7
			C28.5,19.7,26.4,21.1,24.2,20.6z"/>
		
			<ellipse transform="matrix(0.2061 -0.9785 0.9785 0.2061 3.5439 37.8046)" fill="#009ACA" cx="25.1" cy="16.7" rx="2.9" ry="2.9"/>
	</g>
	<g>
		<path fill="#009ACA" d="M18.9,39.5l-0.5-0.1c0-0.4,0-0.8-0.1-1.3l0.5-0.2c0.3-0.1,0.5-0.5,0.4-0.8l-0.1-0.4
			c-0.1-0.3-0.5-0.5-0.8-0.4l-0.5,0.2c-0.2-0.4-0.4-0.7-0.7-1l0.3-0.4c0.2-0.3,0.2-0.6,0-0.9l-0.3-0.3c-0.3-0.2-0.6-0.2-0.9,0
			l-0.3,0.4c-0.3-0.2-0.7-0.4-1.1-0.6l0.1-0.5c0.1-0.3-0.1-0.7-0.5-0.7L14,32.5c-0.3-0.1-0.7,0.1-0.7,0.5l-0.1,0.5
			c-0.4,0-0.8,0-1.3,0.1L11.7,33c-0.1-0.3-0.5-0.5-0.8-0.4l-0.4,0.1c-0.3,0.1-0.5,0.5-0.4,0.8l0.2,0.5c-0.4,0.2-0.7,0.4-1,0.7
			l-0.4-0.3c-0.3-0.2-0.6-0.2-0.9,0l-0.3,0.3c-0.2,0.3-0.2,0.6,0,0.9l0.4,0.3c-0.2,0.3-0.4,0.7-0.6,1.1L7.1,37
			c-0.3-0.1-0.7,0.1-0.7,0.5l-0.1,0.4c-0.1,0.3,0.1,0.7,0.5,0.7l0.5,0.1c0,0.4,0,0.8,0.1,1.3l-0.5,0.2c-0.3,0.1-0.5,0.5-0.4,0.8
			l0.1,0.4c0.1,0.3,0.5,0.5,0.8,0.4l0.5-0.2c0.2,0.4,0.4,0.7,0.7,1L8.2,43c-0.2,0.3-0.2,0.6,0,0.9l0.3,0.3c0.3,0.2,0.6,0.2,0.9,0
			l0.3-0.4c0.3,0.2,0.7,0.4,1.1,0.6l-0.1,0.5c-0.1,0.3,0.1,0.7,0.5,0.7l0.4,0.1c0.3,0.1,0.7-0.1,0.7-0.5l0.1-0.5
			c0.4,0,0.8,0,1.3-0.1l0.2,0.5c0.1,0.3,0.5,0.5,0.8,0.4l0.4-0.1c0.3-0.1,0.5-0.5,0.4-0.8L15.3,44c0.4-0.2,0.7-0.4,1-0.7l0.4,0.3
			c0.3,0.2,0.6,0.2,0.9,0l0.3-0.3c0.2-0.3,0.2-0.6,0-0.9l-0.4-0.3c0.2-0.3,0.4-0.7,0.6-1.1l0.5,0.1c0.3,0.1,0.7-0.1,0.7-0.5l0.1-0.4
			C19.5,39.9,19.2,39.5,18.9,39.5z M12,42.9c-2.2-0.5-3.5-2.6-3.1-4.7c0.5-2.2,2.6-3.5,4.7-3.1s3.5,2.6,3.1,4.7
			C16.3,42,14.2,43.4,12,42.9z"/>
		
			<ellipse transform="matrix(0.2061 -0.9785 0.9785 0.2061 -28.0155 43.5323)" fill="#009ACA" cx="12.8" cy="39" rx="2.9" ry="2.9"/>
	</g>
	<g>
		<path fill="#009ACA" d="M33,37.4l-0.5,0c-0.1-0.4-0.2-0.8-0.4-1.2l0.4-0.3c0.3-0.2,0.4-0.6,0.2-0.9l-0.3-0.4
			c-0.2-0.3-0.6-0.4-0.9-0.2l-0.4,0.3c-0.3-0.3-0.6-0.6-0.9-0.8l0.2-0.4c0.1-0.3,0-0.7-0.3-0.8l-0.4-0.2c-0.3-0.1-0.7,0-0.8,0.3
			l-0.2,0.4c-0.4-0.1-0.8-0.2-1.2-0.2l0-0.5c0-0.3-0.3-0.6-0.7-0.6l-0.4,0c-0.3,0-0.6,0.3-0.6,0.7l0,0.5c-0.4,0.1-0.8,0.2-1.2,0.4
			l-0.3-0.4c-0.2-0.3-0.6-0.4-0.9-0.2l-0.4,0.3c-0.3,0.2-0.4,0.6-0.2,0.9l0.3,0.4c-0.3,0.3-0.6,0.6-0.8,0.9L22,35.3
			c-0.3-0.1-0.7,0-0.8,0.3L21,36c-0.1,0.3,0,0.7,0.3,0.8l0.4,0.2c-0.1,0.4-0.2,0.8-0.2,1.2l-0.5,0c-0.3,0-0.6,0.3-0.6,0.7l0,0.4
			c0,0.3,0.3,0.6,0.7,0.6l0.5,0c0.1,0.4,0.2,0.8,0.4,1.2l-0.4,0.3c-0.3,0.2-0.4,0.6-0.2,0.9l0.3,0.4c0.2,0.3,0.6,0.4,0.9,0.2
			l0.4-0.3c0.3,0.3,0.6,0.6,0.9,0.8l-0.2,0.4c-0.1,0.3,0,0.7,0.3,0.8l0.4,0.2c0.3,0.1,0.7,0,0.8-0.3l0.2-0.4
			c0.4,0.1,0.8,0.2,1.2,0.2l0,0.5c0,0.3,0.3,0.6,0.7,0.6l0.4,0c0.3,0,0.6-0.3,0.6-0.7l0-0.5c0.4-0.1,0.8-0.2,1.2-0.4l0.3,0.4
			c0.2,0.3,0.6,0.4,0.9,0.2L31,44c0.3-0.2,0.4-0.6,0.2-0.9l-0.3-0.4c0.3-0.3,0.6-0.6,0.8-0.9l0.4,0.2c0.3,0.1,0.7,0,0.8-0.3l0.2-0.4
			c0.1-0.3,0-0.7-0.3-0.8l-0.4-0.2c0.1-0.4,0.2-0.8,0.2-1.2l0.5,0c0.3,0,0.6-0.3,0.6-0.7l0-0.4C33.7,37.6,33.4,37.3,33,37.4z
			 M27.4,42.6c-2.2,0.2-4.1-1.5-4.3-3.7c-0.2-2.2,1.5-4.1,3.7-4.3s4.1,1.5,4.3,3.7C31.2,40.5,29.6,42.5,27.4,42.6z"/>
		
			<ellipse transform="matrix(0.9971 -7.583822e-02 7.583822e-02 0.9971 -2.8536 2.1642)" fill="#009ACA" cx="27.1" cy="38.7" rx="2.9" ry="2.9"/>
	</g>
	<g>
		<path fill="#009ACA" d="M51.2,27.3l-0.5-0.1c0-0.4,0-0.8-0.1-1.2l0.4-0.2c0.3-0.1,0.5-0.5,0.3-0.8l-0.2-0.4
			c-0.1-0.3-0.5-0.5-0.8-0.3l-0.5,0.2c-0.2-0.4-0.5-0.7-0.7-1l0.3-0.4c0.2-0.3,0.2-0.7-0.1-0.9L49,21.9c-0.3-0.2-0.7-0.2-0.9,0.1
			l-0.3,0.4c-0.4-0.2-0.7-0.4-1.2-0.5l0.1-0.5c0.1-0.3-0.2-0.7-0.5-0.7l-0.4-0.1c-0.3-0.1-0.7,0.2-0.7,0.5l-0.1,0.5
			c-0.4,0-0.8,0-1.2,0.1l-0.2-0.4c-0.1-0.3-0.5-0.5-0.8-0.3l-0.4,0.2c-0.3,0.1-0.5,0.5-0.3,0.8l0.2,0.5c-0.4,0.2-0.7,0.5-1,0.7
			l-0.4-0.3c-0.3-0.2-0.7-0.2-0.9,0.1l-0.3,0.4c-0.2,0.3-0.2,0.7,0.1,0.9l0.4,0.3c-0.2,0.4-0.4,0.7-0.5,1.2l-0.5-0.1
			c-0.3-0.1-0.7,0.2-0.7,0.5l-0.1,0.4c-0.1,0.3,0.2,0.7,0.5,0.7l0.5,0.1c0,0.4,0,0.8,0.1,1.2l-0.4,0.2c-0.3,0.1-0.5,0.5-0.3,0.8
			l0.2,0.4c0.1,0.3,0.5,0.5,0.8,0.3l0.5-0.2c0.2,0.4,0.5,0.7,0.7,1l-0.3,0.4c-0.2,0.3-0.2,0.7,0.1,0.9l0.4,0.3
			c0.3,0.2,0.7,0.2,0.9-0.1l0.3-0.4c0.4,0.2,0.7,0.4,1.2,0.5l-0.1,0.5c-0.1,0.3,0.2,0.7,0.5,0.7l0.4,0.1c0.3,0.1,0.7-0.2,0.7-0.5
			l0.1-0.5c0.4,0,0.8,0,1.2-0.1l0.2,0.4c0.1,0.3,0.5,0.5,0.8,0.3l0.4-0.2c0.3-0.1,0.5-0.5,0.3-0.8l-0.2-0.5c0.4-0.2,0.7-0.5,1-0.7
			l0.4,0.3c0.3,0.2,0.7,0.2,0.9-0.1l0.3-0.4c0.2-0.3,0.2-0.7-0.1-0.9l-0.4-0.3c0.2-0.4,0.4-0.7,0.5-1.2l0.5,0.1
			c0.3,0.1,0.7-0.2,0.7-0.5l0.1-0.4C51.7,27.7,51.5,27.4,51.2,27.3z M44.5,31.2c-2.2-0.3-3.7-2.4-3.3-4.5c0.3-2.2,2.4-3.7,4.5-3.3
			c2.2,0.3,3.7,2.4,3.3,4.5C48.7,30,46.7,31.5,44.5,31.2z"/>
		
			<ellipse transform="matrix(0.1494 -0.9888 0.9888 0.1494 11.3771 67.7531)" fill="#009ACA" cx="45.1" cy="27.3" rx="2.9" ry="2.9"/>
	</g>
	<g>
		<path fill="#009ACA" d="M84.4,16.2l-0.7-0.3c0.2-0.6,0.3-1.2,0.3-1.8l0.7-0.1c0.5-0.1,0.9-0.5,0.8-1l-0.1-0.7
			c-0.1-0.5-0.5-0.9-1-0.8l-0.7,0.1c-0.2-0.6-0.4-1.2-0.7-1.7l0.6-0.4c0.4-0.3,0.5-0.9,0.2-1.3l-0.4-0.5c-0.3-0.4-0.9-0.5-1.3-0.2
			l-0.6,0.4c-0.4-0.4-0.9-0.8-1.5-1.1L80.3,6c0.2-0.5,0-1-0.5-1.2l-0.6-0.3c-0.5-0.2-1,0-1.2,0.5l-0.3,0.7c-0.6-0.2-1.2-0.3-1.8-0.3
			l-0.1-0.7c-0.1-0.5-0.5-0.9-1-0.8L74.1,4c-0.5,0.1-0.9,0.5-0.8,1l0.1,0.7c-0.6,0.2-1.2,0.4-1.7,0.7l-0.4-0.6
			c-0.3-0.4-0.9-0.5-1.3-0.2l-0.5,0.4C69,6.4,68.9,7,69.2,7.4L69.7,8c-0.4,0.4-0.8,0.9-1.1,1.5l-0.7-0.3c-0.5-0.2-1,0-1.2,0.5
			l-0.3,0.6c-0.2,0.5,0,1,0.5,1.2l0.7,0.3c-0.2,0.6-0.3,1.2-0.3,1.8l-0.7,0.1c-0.5,0.1-0.9,0.5-0.8,1l0.1,0.7c0.1,0.5,0.5,0.9,1,0.8
			l0.7-0.1c0.2,0.6,0.4,1.2,0.7,1.7l-0.6,0.4c-0.4,0.3-0.5,0.9-0.2,1.3l0.4,0.5c0.3,0.4,0.9,0.5,1.3,0.2l0.6-0.4
			c0.4,0.4,0.9,0.8,1.5,1.1L71,21.7c-0.2,0.5,0,1,0.5,1.2l0.6,0.3c0.5,0.2,1,0,1.2-0.5l0.3-0.7c0.6,0.2,1.2,0.3,1.8,0.3l0.1,0.7
			c0.1,0.5,0.5,0.9,1,0.8l0.7-0.1c0.5-0.1,0.9-0.5,0.8-1l-0.1-0.7c0.6-0.2,1.2-0.4,1.7-0.7l0.4,0.6c0.3,0.4,0.9,0.5,1.3,0.2l0.5-0.4
			c0.4-0.3,0.5-0.9,0.2-1.3l-0.4-0.6c0.4-0.4,0.8-0.9,1.1-1.5l0.7,0.3c0.5,0.2,1,0,1.2-0.5l0.3-0.6C85.1,17,84.9,16.4,84.4,16.2z
			 M73.3,19.3c-3-1.3-4.4-4.8-3.2-7.8c1.3-3,4.8-4.4,7.8-3.2s4.4,4.8,3.2,7.8C79.8,19.2,76.4,20.6,73.3,19.3z"/>
		<ellipse transform="matrix(0.3895 -0.921 0.921 0.3895 33.4161 78.1423)" fill="#009ACA" cx="75.7" cy="13.9" rx="4.3" ry="4.3"/>
	</g>
	<g>
		<path fill="#009ACA" d="M104.2,40.7l-0.7-0.1c0-0.6,0-1.3-0.2-1.9l0.7-0.3c0.5-0.2,0.7-0.7,0.5-1.2l-0.2-0.6
			c-0.2-0.5-0.7-0.7-1.2-0.5l-0.7,0.3c-0.3-0.5-0.7-1-1.1-1.5l0.5-0.6c0.3-0.4,0.3-1-0.1-1.3l-0.5-0.4c-0.4-0.3-1-0.3-1.3,0.1
			l-0.5,0.6c-0.5-0.3-1.1-0.6-1.7-0.8l0.1-0.7c0.1-0.5-0.3-1-0.8-1.1l-0.7-0.1c-0.5-0.1-1,0.3-1.1,0.8l-0.1,0.7
			c-0.6,0-1.3,0-1.9,0.2L93,31.6c-0.2-0.5-0.7-0.7-1.2-0.5l-0.6,0.2c-0.5,0.2-0.7,0.7-0.5,1.2l0.3,0.7c-0.5,0.3-1,0.7-1.5,1.1
			l-0.6-0.5c-0.4-0.3-1-0.3-1.3,0.1l-0.4,0.5c-0.3,0.4-0.3,1,0.1,1.3l0.6,0.5c-0.3,0.5-0.6,1.1-0.8,1.7l-0.7-0.1
			c-0.5-0.1-1,0.3-1.1,0.8l-0.1,0.7c-0.1,0.5,0.3,1,0.8,1.1l0.7,0.1c0,0.6,0,1.3,0.2,1.9l-0.7,0.3c-0.5,0.2-0.7,0.7-0.5,1.2l0.2,0.6
			c0.2,0.5,0.7,0.7,1.2,0.5l0.7-0.3c0.3,0.5,0.7,1,1.1,1.5l-0.5,0.6c-0.3,0.4-0.3,1,0.1,1.3l0.5,0.4c0.4,0.3,1,0.3,1.3-0.1l0.5-0.6
			c0.5,0.3,1.1,0.6,1.7,0.8l-0.1,0.7c-0.1,0.5,0.3,1,0.8,1.1l0.7,0.1c0.5,0.1,1-0.3,1.1-0.8l0.1-0.7c0.6,0,1.3,0,1.9-0.2l0.3,0.7
			c0.2,0.5,0.7,0.7,1.2,0.5l0.6-0.2c0.5-0.2,0.7-0.7,0.5-1.2l-0.3-0.7c0.5-0.3,1-0.7,1.5-1.1l0.6,0.5c0.4,0.3,1,0.3,1.3-0.1l0.4-0.5
			c0.3-0.4,0.3-1-0.1-1.3l-0.6-0.5c0.3-0.5,0.6-1.1,0.8-1.7l0.7,0.1c0.5,0.1,1-0.3,1.1-0.8l0.1-0.7C105,41.2,104.7,40.7,104.2,40.7z
			 M94.1,46.3c-3.2-0.5-5.4-3.6-4.9-6.8c0.5-3.2,3.6-5.4,6.8-4.9s5.4,3.6,4.9,6.8C100.4,44.7,97.4,46.9,94.1,46.3z"/>
		
			<ellipse transform="matrix(0.1599 -0.9871 0.9871 0.1599 39.924 127.8362)" fill="#009ACA" cx="95.1" cy="40.5" rx="4.3" ry="4.3"/>
	</g>
	<g>
		<path fill="#009ACA" d="M68.3,42.7l-0.6-0.1c0-0.6,0-1.1-0.2-1.6l0.6-0.2c0.4-0.2,0.6-0.6,0.5-1l-0.2-0.5c-0.2-0.4-0.6-0.6-1-0.5
			l-0.6,0.2c-0.3-0.5-0.6-0.9-1-1.3l0.4-0.5c0.3-0.3,0.2-0.9-0.1-1.1l-0.5-0.4c-0.3-0.3-0.9-0.2-1.1,0.1l-0.4,0.5
			c-0.5-0.3-1-0.5-1.5-0.7l0.1-0.6c0.1-0.4-0.2-0.9-0.7-0.9l-0.6-0.1c-0.4-0.1-0.9,0.2-0.9,0.7l-0.1,0.6c-0.6,0-1.1,0-1.6,0.2
			l-0.2-0.6c-0.2-0.4-0.6-0.6-1-0.5L57,34.5c-0.4,0.2-0.6,0.6-0.5,1l0.2,0.6c-0.5,0.3-0.9,0.6-1.3,1l-0.5-0.4
			c-0.3-0.3-0.9-0.2-1.1,0.1l-0.4,0.5c-0.3,0.3-0.2,0.9,0.1,1.1l0.5,0.4c-0.3,0.5-0.5,1-0.7,1.5l-0.6-0.1c-0.4-0.1-0.9,0.2-0.9,0.7
			l-0.1,0.6c-0.1,0.4,0.2,0.9,0.7,0.9l0.6,0.1c0,0.6,0,1.1,0.2,1.6l-0.6,0.2c-0.4,0.2-0.6,0.6-0.5,1l0.2,0.5c0.2,0.4,0.6,0.6,1,0.5
			l0.6-0.2c0.3,0.5,0.6,0.9,1,1.3L54.5,48c-0.3,0.3-0.2,0.9,0.1,1.1l0.5,0.4c0.3,0.3,0.9,0.2,1.1-0.1l0.4-0.5c0.5,0.3,1,0.5,1.5,0.7
			L58,50.2c-0.1,0.4,0.2,0.9,0.7,0.9l0.6,0.1c0.4,0.1,0.9-0.2,0.9-0.7l0.1-0.6c0.6,0,1.1,0,1.6-0.2l0.2,0.6c0.2,0.4,0.6,0.6,1,0.5
			l0.5-0.2c0.4-0.2,0.6-0.6,0.5-1L64,49c0.5-0.3,0.9-0.6,1.3-1l0.5,0.4c0.3,0.3,0.9,0.2,1.1-0.1l0.4-0.5c0.3-0.3,0.2-0.9-0.1-1.1
			l-0.5-0.4c0.3-0.5,0.5-1,0.7-1.5l0.6,0.1c0.4,0.1,0.9-0.2,0.9-0.7l0.1-0.6C69.1,43.2,68.8,42.8,68.3,42.7z M59.5,47.7
			c-2.8-0.5-4.8-3.1-4.3-6c0.5-2.8,3.1-4.8,6-4.3s4.8,3.1,4.3,6C65,46.2,62.4,48.2,59.5,47.7z"/>
		
			<ellipse transform="matrix(0.1599 -0.9871 0.9871 0.1599 8.6861 95.3226)" fill="#009ACA" cx="60.3" cy="42.6" rx="3.7" ry="3.7"/>
	</g>
</g>
<g id="Camada_3">
	<path fill="#009ACA" d="M40.4,20.5l-0.4,0c0-0.7-0.2-1.4-0.6-2l0.3-0.2c0.2-0.2,0.2-0.5,0.1-0.7l-0.2-0.3c-0.2-0.2-0.5-0.2-0.7-0.1
		l-0.3,0.2c-0.5-0.5-1.1-0.8-1.8-1l0-0.4c0-0.3-0.2-0.5-0.4-0.5l-0.3,0c-0.3,0-0.5,0.2-0.5,0.4l0,0.4c-0.7,0-1.4,0.2-2,0.6l-0.2-0.3
		c-0.2-0.2-0.5-0.2-0.7-0.1l-0.3,0.2c-0.2,0.2-0.2,0.5-0.1,0.7l0.2,0.3c-0.5,0.5-0.8,1.1-1,1.8l-0.4,0c-0.3,0-0.5,0.2-0.5,0.4l0,0.3
		c0,0.3,0.2,0.5,0.4,0.5l0.4,0c0,0.7,0.2,1.4,0.6,2L31.6,23c-0.2,0.2-0.2,0.5-0.1,0.7l0.2,0.3c0.2,0.2,0.5,0.2,0.7,0.1l0.3-0.2
		c0.5,0.5,1.1,0.8,1.8,1l0,0.4c0,0.3,0.2,0.5,0.4,0.5l0.3,0c0.3,0,0.5-0.2,0.5-0.4l0-0.4c0.7,0,1.4-0.2,2-0.6l0.2,0.3
		c0.2,0.2,0.5,0.2,0.7,0.1l0.3-0.2c0.2-0.2,0.2-0.5,0.1-0.7l-0.2-0.3c0.5-0.5,0.8-1.1,1-1.8l0.4,0c0.3,0,0.5-0.2,0.5-0.4l0-0.3
		C40.8,20.8,40.6,20.5,40.4,20.5z M35.4,23.3c-1.5-0.2-2.6-1.5-2.4-3s1.5-2.6,3-2.4c1.5,0.2,2.6,1.5,2.4,3S36.9,23.5,35.4,23.3z"/>
	<path fill="#009ACA" d="M63.7,24.8l-0.5,0c-0.2-0.9-0.6-1.7-1.2-2.4l0.3-0.4c0.2-0.2,0.2-0.6-0.1-0.9L62,21
		c-0.2-0.2-0.6-0.2-0.9,0.1l-0.3,0.4c-0.7-0.5-1.6-0.8-2.5-0.9l0-0.5c0-0.3-0.3-0.6-0.6-0.6l-0.4,0c-0.3,0-0.6,0.3-0.6,0.6l0,0.5
		c-0.9,0.2-1.7,0.6-2.4,1.2L54,21.5c-0.2-0.2-0.6-0.2-0.9,0.1l-0.3,0.3c-0.2,0.2-0.2,0.6,0.1,0.9l0.4,0.3c-0.5,0.7-0.8,1.6-0.9,2.5
		l-0.5,0c-0.3,0-0.6,0.3-0.6,0.6l0,0.4c0,0.3,0.3,0.6,0.6,0.6l0.5,0c0.2,0.9,0.6,1.7,1.2,2.4l-0.3,0.4c-0.2,0.2-0.2,0.6,0.1,0.9
		l0.3,0.3c0.2,0.2,0.6,0.2,0.9-0.1l0.3-0.4c0.7,0.5,1.6,0.8,2.5,0.9l0,0.5c0,0.3,0.3,0.6,0.6,0.6l0.4,0c0.3,0,0.6-0.3,0.6-0.6l0-0.5
		c0.9-0.2,1.7-0.6,2.4-1.2l0.4,0.3c0.2,0.2,0.6,0.2,0.9-0.1l0.3-0.3c0.2-0.2,0.2-0.6-0.1-0.9L62.5,29c0.5-0.7,0.8-1.6,0.9-2.5l0.5,0
		c0.3,0,0.6-0.3,0.6-0.6l0-0.4C64.3,25.1,64,24.8,63.7,24.8z M58.1,29.5c-1.9,0.1-3.6-1.3-3.7-3.2c-0.1-1.9,1.3-3.5,3.2-3.7
		c1.9-0.1,3.6,1.3,3.7,3.2C61.4,27.7,60,29.4,58.1,29.5z"/>
	<path fill="#009ACA" d="M99.1,18.8l-0.5,0c-0.2-1-0.6-1.9-1.3-2.6l0.3-0.4c0.2-0.3,0.2-0.7-0.1-0.9l-0.4-0.3
		c-0.3-0.2-0.7-0.2-0.9,0.1L96,15c-0.8-0.5-1.7-0.8-2.7-0.9l0-0.5c0-0.4-0.3-0.6-0.7-0.6L92,13c-0.4,0-0.6,0.3-0.6,0.7l0,0.5
		c-1,0.2-1.9,0.6-2.6,1.3l-0.4-0.3c-0.3-0.2-0.7-0.2-0.9,0.1l-0.3,0.4c-0.2,0.3-0.2,0.7,0.1,0.9l0.4,0.3c-0.5,0.8-0.8,1.7-0.9,2.7
		l-0.5,0c-0.4,0-0.6,0.3-0.6,0.7l0,0.5c0,0.4,0.3,0.6,0.7,0.6l0.5,0c0.2,1,0.6,1.9,1.3,2.6l-0.3,0.4c-0.2,0.3-0.2,0.7,0.1,0.9
		l0.4,0.3c0.3,0.2,0.7,0.2,0.9-0.1l0.3-0.4c0.8,0.5,1.7,0.8,2.7,0.9l0,0.5c0,0.4,0.3,0.6,0.7,0.6l0.5,0c0.4,0,0.6-0.3,0.6-0.7l0-0.5
		c1-0.2,1.9-0.6,2.6-1.3L97,25c0.3,0.2,0.7,0.2,0.9-0.1l0.3-0.4c0.2-0.3,0.2-0.7-0.1-0.9l-0.4-0.3c0.5-0.8,0.8-1.7,0.9-2.7l0.5,0
		c0.4,0,0.6-0.3,0.6-0.7l0-0.5C99.8,19,99.5,18.7,99.1,18.8z M92.9,23.8c-2.1,0.1-3.9-1.4-4-3.5s1.4-3.9,3.5-4s3.9,1.4,4,3.5
		S95,23.7,92.9,23.8z"/>
	<path fill="#009ACA" d="M83.8,41.9l-0.4,0.2c-0.5-0.8-1.1-1.4-1.9-1.9l0.2-0.4c0.1-0.3,0-0.7-0.3-0.8l-0.4-0.2
		c-0.3-0.1-0.7,0-0.8,0.3L80,39.6c-0.9-0.2-1.8-0.2-2.7,0l-0.2-0.4c-0.1-0.3-0.5-0.5-0.8-0.3L75.9,39c-0.3,0.1-0.5,0.5-0.3,0.8
		l0.2,0.4c-0.8,0.5-1.4,1.1-1.9,1.9l-0.4-0.2c-0.3-0.1-0.7,0-0.8,0.3l-0.2,0.4c-0.1,0.3,0,0.7,0.3,0.8l0.4,0.2
		c-0.2,0.9-0.2,1.8,0,2.7l-0.4,0.2c-0.3,0.1-0.5,0.5-0.3,0.8l0.2,0.4c0.1,0.3,0.5,0.5,0.8,0.3l0.4-0.2c0.5,0.8,1.1,1.4,1.9,1.9
		l-0.2,0.4c-0.1,0.3,0,0.7,0.3,0.8l0.4,0.2c0.3,0.1,0.7,0,0.8-0.3l0.2-0.4c0.9,0.2,1.8,0.2,2.7,0l0.2,0.4c0.1,0.3,0.5,0.5,0.8,0.3
		l0.4-0.2c0.3-0.1,0.5-0.5,0.3-0.8l-0.2-0.4c0.8-0.5,1.4-1.1,1.9-1.9l0.4,0.2c0.3,0.1,0.7,0,0.8-0.3l0.2-0.4c0.1-0.3,0-0.7-0.3-0.8
		L84,46.3c0.2-0.9,0.2-1.8,0-2.7l0.4-0.2c0.3-0.1,0.5-0.5,0.3-0.8l-0.2-0.4C84.5,41.9,84.1,41.8,83.8,41.9z M80,48.2
		c-1.8,0.7-3.8-0.1-4.6-1.9c-0.7-1.8,0.1-3.8,1.9-4.6s3.8,0.1,4.6,1.9C82.6,45.4,81.8,47.4,80,48.2z"/>
	<path fill="#009ACA" d="M7.4,30.3l-0.3,0c-0.2-0.5-0.4-0.9-0.7-1.2l0.1-0.2c0.1-0.1,0.1-0.3-0.1-0.4l-0.2-0.1
		c-0.1-0.1-0.3-0.1-0.4,0.1l-0.1,0.2c-0.4-0.2-0.9-0.3-1.4-0.3l0-0.3c0-0.2-0.2-0.3-0.4-0.3l-0.2,0c-0.2,0-0.3,0.2-0.3,0.4l0,0.3
		c-0.5,0.2-0.9,0.4-1.2,0.7L2.1,29C2,28.9,1.8,29,1.7,29.1l-0.1,0.2c-0.1,0.1-0.1,0.3,0.1,0.4l0.2,0.1c-0.2,0.4-0.3,0.9-0.3,1.4
		l-0.3,0c-0.2,0-0.3,0.2-0.3,0.4l0,0.2c0,0.2,0.2,0.3,0.4,0.3l0.3,0c0.2,0.5,0.4,0.9,0.7,1.2l-0.1,0.2c-0.1,0.1-0.1,0.3,0.1,0.4
		l0.2,0.1C2.6,34.2,2.8,34.1,3,34l0.1-0.2C3.5,34,4,34.1,4.5,34.1l0,0.3c0,0.2,0.2,0.3,0.4,0.3l0.2,0c0.2,0,0.3-0.2,0.3-0.4l0-0.3
		c0.5-0.2,0.9-0.4,1.2-0.7l0.2,0.1c0.1,0.1,0.3,0.1,0.4-0.1l0.1-0.2c0.1-0.1,0.1-0.3-0.1-0.4L7,32.5c0.2-0.4,0.3-0.9,0.3-1.4l0.3,0
		c0.2,0,0.3-0.2,0.3-0.4l0-0.2C7.8,30.3,7.6,30.2,7.4,30.3z M4.7,32.6c-0.8,0.1-1.6-0.4-1.7-1.2s0.4-1.6,1.2-1.7s1.6,0.4,1.7,1.2
		S5.5,32.5,4.7,32.6z"/>
	<path fill="#009ACA" d="M15.2,25l-0.4,0c-0.1-0.7-0.4-1.3-0.9-1.8l0.2-0.3c0.2-0.2,0.2-0.5,0-0.6l-0.2-0.2c-0.2-0.2-0.5-0.2-0.6,0
		l-0.2,0.3c-0.6-0.4-1.2-0.6-1.9-0.7l0-0.4c0-0.3-0.2-0.4-0.5-0.4l-0.3,0c-0.3,0-0.4,0.2-0.4,0.5l0,0.4c-0.7,0.1-1.3,0.4-1.8,0.9
		l-0.3-0.2c-0.2-0.2-0.5-0.2-0.6,0L7,22.7c-0.2,0.2-0.2,0.5,0,0.6l0.3,0.2c-0.4,0.6-0.6,1.2-0.7,1.9l-0.4,0c-0.3,0-0.4,0.2-0.4,0.5
		l0,0.3c0,0.3,0.2,0.4,0.5,0.4l0.4,0c0.1,0.7,0.4,1.3,0.9,1.8l-0.2,0.3c-0.2,0.2-0.2,0.5,0,0.6l0.2,0.2c0.2,0.2,0.5,0.2,0.6,0
		l0.2-0.3c0.6,0.4,1.2,0.6,1.9,0.7l0,0.4c0,0.3,0.2,0.4,0.5,0.4l0.3,0c0.3,0,0.4-0.2,0.4-0.5l0-0.4c0.7-0.1,1.3-0.4,1.8-0.9l0.3,0.2
		c0.2,0.2,0.5,0.2,0.6,0l0.2-0.2c0.2-0.2,0.2-0.5,0-0.6l-0.3-0.2c0.4-0.6,0.6-1.2,0.7-1.9l0.4,0c0.3,0,0.4-0.2,0.4-0.5l0-0.3
		C15.7,25.2,15.5,25,15.2,25z M10.9,27.9c-1.2,0.1-2.1-0.8-2.2-2s0.8-2.1,2-2.2s2.1,0.8,2.2,2S12.1,27.9,10.9,27.9z"/>
	<path fill="#009ACA" d="M23.2,27.4l-0.3,0.1c-0.3-0.6-0.7-1.1-1.2-1.4l0.2-0.3c0.1-0.2,0-0.5-0.2-0.6L21.3,25
		c-0.2-0.1-0.5,0-0.6,0.2l-0.2,0.3c-0.6-0.2-1.2-0.2-1.9-0.1l-0.1-0.3c-0.1-0.2-0.3-0.3-0.5-0.3l-0.3,0.1c-0.2,0.1-0.3,0.3-0.3,0.5
		l0.1,0.3c-0.6,0.3-1.1,0.7-1.4,1.2l-0.3-0.2c-0.2-0.1-0.5,0-0.6,0.2l-0.1,0.3c-0.1,0.2,0,0.5,0.2,0.6l0.3,0.2
		c-0.2,0.6-0.2,1.2-0.1,1.9l-0.3,0.1c-0.2,0.1-0.3,0.3-0.3,0.5l0.1,0.3c0.1,0.2,0.3,0.3,0.5,0.3l0.3-0.1c0.3,0.6,0.7,1.1,1.2,1.4
		L17,32.8c-0.1,0.2,0,0.5,0.2,0.6l0.3,0.1c0.2,0.1,0.5,0,0.6-0.2l0.2-0.3c0.6,0.2,1.2,0.2,1.9,0.1l0.1,0.3c0.1,0.2,0.3,0.3,0.5,0.3
		l0.3-0.1c0.2-0.1,0.3-0.3,0.3-0.5l-0.1-0.3c0.6-0.3,1.1-0.7,1.4-1.2l0.3,0.2c0.2,0.1,0.5,0,0.6-0.2l0.1-0.3c0.1-0.2,0-0.5-0.2-0.6
		l-0.3-0.2c0.2-0.6,0.2-1.2,0.1-1.9l0.3-0.1c0.2-0.1,0.3-0.3,0.3-0.5l-0.1-0.3C23.6,27.4,23.4,27.3,23.2,27.4z M20,31.2
		c-1,0.4-2.2-0.2-2.5-1.2s0.2-2.2,1.2-2.5c1-0.4,2.2,0.2,2.5,1.2S21,30.8,20,31.2z"/>
	<path fill="#009ACA" d="M30.4,26.8l-0.3,0.1c-0.2-0.5-0.6-0.9-1-1.1l0.1-0.2c0.1-0.2,0-0.4-0.2-0.5l-0.2-0.1
		c-0.2-0.1-0.4,0-0.5,0.2l-0.1,0.2c-0.5-0.2-1-0.2-1.5-0.1L26.7,25c-0.1-0.2-0.3-0.3-0.4-0.2L26,24.8c-0.2,0.1-0.3,0.3-0.2,0.4
		l0.1,0.3c-0.5,0.2-0.9,0.6-1.1,1l-0.2-0.1c-0.2-0.1-0.4,0-0.5,0.2l-0.1,0.2c-0.1,0.2,0,0.4,0.2,0.5l0.2,0.1c-0.2,0.5-0.2,1-0.1,1.5
		L24,29c-0.2,0.1-0.3,0.3-0.2,0.4l0.1,0.2c0.1,0.2,0.3,0.3,0.4,0.2l0.3-0.1c0.2,0.5,0.6,0.9,1,1.1l-0.1,0.2c-0.1,0.2,0,0.4,0.2,0.5
		l0.2,0.1c0.2,0.1,0.4,0,0.5-0.2l0.1-0.2c0.5,0.2,1,0.2,1.5,0.1l0.1,0.3c0.1,0.2,0.3,0.3,0.4,0.2l0.2-0.1c0.2-0.1,0.3-0.3,0.2-0.4
		l-0.1-0.3c0.5-0.2,0.9-0.6,1.1-1l0.2,0.1c0.2,0.1,0.4,0,0.5-0.2l0.1-0.2c0.1-0.2,0-0.4-0.2-0.5l-0.2-0.1c0.2-0.5,0.2-1,0.1-1.5
		l0.3-0.1c0.2-0.1,0.3-0.3,0.2-0.4L30.9,27C30.8,26.8,30.6,26.7,30.4,26.8z M27.9,29.9c-0.8,0.3-1.8-0.2-2-1c-0.3-0.8,0.2-1.7,1-2
		c0.8-0.3,1.8,0.2,2,1C29.2,28.7,28.7,29.6,27.9,29.9z"/>
	<path fill="#009ACA" d="M37.6,27.7l-0.2,0.1c-0.3-0.4-0.6-0.8-1-1l0.1-0.2c0.1-0.2,0-0.4-0.2-0.4L36,25.9c-0.2-0.1-0.4,0-0.4,0.2
		l-0.1,0.2c-0.5-0.1-1-0.1-1.5,0l-0.1-0.2c-0.1-0.2-0.3-0.3-0.4-0.2L33.3,26c-0.2,0.1-0.3,0.3-0.2,0.4l0.1,0.2
		c-0.4,0.3-0.8,0.6-1.1,1l-0.2-0.1c-0.2-0.1-0.4,0-0.4,0.2l-0.1,0.2c-0.1,0.2,0,0.4,0.2,0.4l0.2,0.1c-0.1,0.5-0.1,1,0,1.5L31.5,30
		c-0.2,0.1-0.3,0.3-0.2,0.4l0.1,0.2c0.1,0.2,0.3,0.3,0.4,0.2l0.2-0.1c0.3,0.4,0.6,0.8,1,1L33,32.1c-0.1,0.2,0,0.4,0.2,0.4l0.2,0.1
		c0.2,0.1,0.4,0,0.4-0.2l0.1-0.2c0.5,0.1,1,0.1,1.5,0l0.1,0.2c0.1,0.2,0.3,0.3,0.4,0.2l0.2-0.1c0.2-0.1,0.3-0.3,0.2-0.4l-0.1-0.2
		c0.4-0.3,0.8-0.6,1.1-1l0.2,0.1c0.2,0.1,0.4,0,0.4-0.2l0.1-0.2c0.1-0.2,0-0.4-0.2-0.4l-0.2-0.1c0.1-0.5,0.1-1,0-1.5l0.2-0.1
		c0.2-0.1,0.3-0.3,0.2-0.4L38,27.8C38,27.7,37.8,27.6,37.6,27.7z M35.3,30.7c-0.8,0.3-1.7-0.1-2-0.9c-0.3-0.8,0.1-1.7,0.9-2
		c0.8-0.3,1.7,0.1,2,0.9C36.4,29.5,36.1,30.4,35.3,30.7z"/>
</g>
<g id="Camada_8">
	<path fill="#001430" d="M93.9,20.2H63.8c-0.6,0-1.2,0.5-1.2,1.2v18.8H95V21.3C95,20.7,94.5,20.2,93.9,20.2z M93.9,39.2H64V22.3
		c0-0.6,0.5-1,1.1-1h27.8c0.6,0,1.1,0.5,1.1,1V39.2z"/>
	<path fill="#FFFFFF" d="M95,40.1v2.7c0,0.7-0.6,1.3-1.3,1.3H64c-0.7,0-1.3-0.6-1.3-1.3v-2.7"/>
	<linearGradient id="SVGID_1_" gradientUnits="userSpaceOnUse" x1="78.9531" y1="43.9006" x2="78.9531" y2="46.1975">
		<stop  offset="0" style="stop-color:#A5B7B6"/>
		<stop  offset="1" style="stop-color:#B0C9CB"/>
	</linearGradient>
	<polygon fill="url(#SVGID_1_)" points="75.1,43.9 74.3,46.2 83.6,46.2 82.8,43.9 	"/>
	<rect x="71.8" y="46.2" fill="#FFFFFF" width="14.3" height="1.2"/>
</g>
<g id="Camada_4">
	<path fill="#FFFFFF" d="M71,47.8l-0.2,0c-0.1-0.4-0.3-0.7-0.6-0.9l0.1-0.2c0.1-0.1,0.1-0.3-0.1-0.4l-0.1-0.1
		c-0.1-0.1-0.3-0.1-0.4,0.1l-0.1,0.2c-0.3-0.2-0.7-0.3-1.1-0.3l0-0.2c0-0.1-0.1-0.2-0.3-0.2l-0.2,0c-0.1,0-0.2,0.1-0.2,0.3l0,0.2
		c-0.4,0.1-0.7,0.3-0.9,0.6l-0.2-0.1c-0.1-0.1-0.3-0.1-0.4,0.1L66.4,47c-0.1,0.1-0.1,0.3,0.1,0.4l0.2,0.1c-0.2,0.3-0.3,0.7-0.3,1.1
		l-0.2,0c-0.1,0-0.2,0.1-0.2,0.3l0,0.2c0,0.1,0.1,0.2,0.3,0.2l0.2,0c0.1,0.4,0.3,0.7,0.6,0.9l-0.1,0.2c-0.1,0.1-0.1,0.3,0.1,0.4
		l0.1,0.1c0.1,0.1,0.3,0.1,0.4-0.1l0.1-0.2c0.3,0.2,0.7,0.3,1.1,0.3l0,0.2c0,0.1,0.1,0.2,0.3,0.2l0.2,0c0.1,0,0.2-0.1,0.2-0.3l0-0.2
		c0.4-0.1,0.7-0.3,0.9-0.6l0.2,0.1c0.1,0.1,0.3,0.1,0.4-0.1l0.1-0.1c0.1-0.1,0.1-0.3-0.1-0.4l-0.2-0.1c0.2-0.3,0.3-0.7,0.3-1.1
		l0.2,0c0.1,0,0.2-0.1,0.2-0.3l0-0.2C71.3,47.9,71.2,47.8,71,47.8z M68.9,49.9c-0.8,0.1-1.5-0.4-1.6-1.2c-0.1-0.8,0.4-1.5,1.2-1.6
		c0.8-0.1,1.5,0.4,1.6,1.2C70.2,49.1,69.6,49.8,68.9,49.9z"/>
	<path fill="#193F56" d="M68.9,43.7l-0.3-0.1c0.1-0.5,0.1-1-0.1-1.5l0.2-0.1c0.2-0.1,0.2-0.3,0.2-0.5l-0.1-0.2
		c-0.1-0.2-0.3-0.2-0.5-0.2l-0.2,0.1c-0.3-0.4-0.7-0.8-1.1-1l0.1-0.3c0.1-0.2,0-0.4-0.2-0.4l-0.2-0.1c-0.2-0.1-0.4,0-0.4,0.2
		l-0.1,0.3c-0.5-0.1-1-0.1-1.5,0.1l-0.1-0.2c-0.1-0.2-0.3-0.2-0.5-0.2l-0.2,0.1c-0.2,0.1-0.2,0.3-0.2,0.5l0.1,0.2
		c-0.4,0.3-0.8,0.7-1,1.1l-0.3-0.1c-0.2-0.1-0.4,0-0.4,0.2l-0.1,0.2c-0.1,0.2,0,0.4,0.2,0.4l0.3,0.1c-0.1,0.5-0.1,1,0.1,1.5L62.3,44
		c-0.2,0.1-0.2,0.3-0.2,0.5l0.1,0.2c0.1,0.2,0.3,0.2,0.5,0.2l0.2-0.1c0.3,0.4,0.7,0.8,1.1,1L63.9,46c-0.1,0.2,0,0.4,0.2,0.4l0.2,0.1
		c0.2,0.1,0.4,0,0.4-0.2l0.1-0.3c0.5,0.1,1,0.1,1.5-0.1l0.1,0.2c0.1,0.2,0.3,0.2,0.5,0.2l0.2-0.1c0.2-0.1,0.2-0.3,0.2-0.5l-0.1-0.2
		c0.4-0.3,0.8-0.7,1-1.1l0.3,0.1c0.2,0.1,0.4,0,0.4-0.2l0.1-0.2C69.1,44,69,43.8,68.9,43.7z M64.9,44.9c-1-0.4-1.6-1.5-1.2-2.5
		c0.4-1,1.5-1.6,2.5-1.2s1.6,1.5,1.2,2.5C67,44.7,65.9,45.2,64.9,44.9z"/>
	<g>
		<path fill="#FFFFFF" d="M62.1,39.8l-0.4,0c0-0.3-0.1-0.6-0.1-0.9l0.3-0.2c0.2-0.1,0.3-0.4,0.2-0.6L62,37.7
			c-0.1-0.2-0.4-0.3-0.6-0.2L61,37.6c-0.2-0.3-0.4-0.5-0.6-0.7l0.2-0.3c0.1-0.2,0.1-0.5-0.1-0.6l-0.3-0.2c-0.2-0.1-0.5-0.1-0.6,0.1
			l-0.2,0.3c-0.3-0.1-0.6-0.2-0.9-0.3l0-0.4c0-0.3-0.2-0.5-0.4-0.5l-0.3,0c-0.3,0-0.5,0.2-0.5,0.4l0,0.4c-0.3,0-0.6,0.1-0.9,0.1
			l-0.2-0.3c-0.1-0.2-0.4-0.3-0.6-0.2l-0.3,0.1C55,35.5,54.9,35.8,55,36l0.2,0.3c-0.3,0.2-0.5,0.4-0.7,0.6l-0.3-0.2
			c-0.2-0.1-0.5-0.1-0.6,0.1l-0.2,0.3c-0.1,0.2-0.1,0.5,0.1,0.6l0.3,0.2c-0.1,0.3-0.2,0.6-0.3,0.9l-0.4,0c-0.3,0-0.5,0.2-0.5,0.4
			l0,0.3c0,0.3,0.2,0.5,0.4,0.5l0.4,0c0,0.3,0.1,0.6,0.1,0.9l-0.3,0.2c-0.2,0.1-0.3,0.4-0.2,0.6l0.1,0.3c0.1,0.2,0.4,0.3,0.6,0.2
			l0.3-0.2c0.2,0.3,0.4,0.5,0.6,0.7l-0.2,0.3c-0.1,0.2-0.1,0.5,0.1,0.6l0.3,0.2c0.2,0.1,0.5,0.1,0.6-0.1l0.2-0.3
			c0.3,0.1,0.6,0.2,0.9,0.3l0,0.4c0,0.3,0.2,0.5,0.4,0.5l0.3,0c0.3,0,0.5-0.2,0.5-0.4l0-0.4c0.3,0,0.6-0.1,0.9-0.1l0.2,0.3
			c0.1,0.2,0.4,0.3,0.6,0.2l0.3-0.1c0.2-0.1,0.3-0.4,0.2-0.6l-0.2-0.3c0.3-0.2,0.5-0.4,0.7-0.6l0.3,0.2c0.2,0.1,0.5,0.1,0.6-0.1
			l0.2-0.3c0.1-0.2,0.1-0.5-0.1-0.6l-0.3-0.2c0.1-0.3,0.2-0.6,0.3-0.9l0.4,0c0.3,0,0.5-0.2,0.5-0.4l0-0.3
			C62.5,40,62.3,39.8,62.1,39.8z M57.2,42.9c-1.7-0.2-2.9-1.6-2.7-3.3c0.2-1.7,1.6-2.9,3.3-2.7c1.7,0.2,2.9,1.6,2.7,3.3
			C60.3,41.9,58.8,43.1,57.2,42.9z"/>
		
			<ellipse transform="matrix(9.878983e-02 -0.9951 0.9951 9.878983e-02 12.0573 93.1796)" fill="#FFFFFF" cx="57.5" cy="39.9" rx="2.2" ry="2.2"/>
	</g>
	<g>
		<path fill="#FFFFFF" d="M81,28.5l-0.5-0.1c0-0.5-0.1-0.9-0.2-1.3l0.5-0.2c0.3-0.1,0.5-0.5,0.3-0.9l-0.2-0.4
			c-0.1-0.3-0.5-0.5-0.9-0.3l-0.5,0.2c-0.2-0.4-0.5-0.7-0.9-1L79,24c0.2-0.3,0.1-0.7-0.2-0.9l-0.4-0.3c-0.3-0.2-0.7-0.1-0.9,0.2
			l-0.3,0.4c-0.4-0.2-0.8-0.4-1.3-0.5l0.1-0.5c0-0.4-0.2-0.7-0.6-0.7l-0.5,0c-0.4,0-0.7,0.2-0.7,0.6l-0.1,0.5
			c-0.5,0-0.9,0.1-1.3,0.2l-0.2-0.5c-0.1-0.3-0.5-0.5-0.9-0.3l-0.4,0.2c-0.3,0.1-0.5,0.5-0.3,0.9l0.2,0.5c-0.4,0.2-0.7,0.5-1,0.9
			l-0.4-0.3c-0.3-0.2-0.7-0.1-0.9,0.2l-0.3,0.4c-0.2,0.3-0.1,0.7,0.2,0.9l0.4,0.3c-0.2,0.4-0.4,0.8-0.5,1.3l-0.5-0.1
			c-0.4,0-0.7,0.2-0.7,0.6l0,0.5c0,0.4,0.2,0.7,0.6,0.7l0.5,0.1c0,0.5,0.1,0.9,0.2,1.3l-0.5,0.2c-0.3,0.1-0.5,0.5-0.3,0.9l0.2,0.4
			c0.1,0.3,0.5,0.5,0.9,0.3l0.5-0.2c0.2,0.4,0.5,0.7,0.9,1L70,33.5c-0.2,0.3-0.1,0.7,0.2,0.9l0.4,0.3c0.3,0.2,0.7,0.1,0.9-0.2
			l0.3-0.4c0.4,0.2,0.8,0.4,1.3,0.5l-0.1,0.5c0,0.4,0.2,0.7,0.6,0.7l0.5,0c0.4,0,0.7-0.2,0.7-0.6l0.1-0.5c0.5,0,0.9-0.1,1.3-0.2
			l0.2,0.5c0.1,0.3,0.5,0.5,0.9,0.3l0.4-0.2c0.3-0.1,0.5-0.5,0.3-0.9l-0.2-0.5c0.4-0.2,0.7-0.5,1-0.9l0.4,0.3
			c0.3,0.2,0.7,0.1,0.9-0.2l0.3-0.4c0.2-0.3,0.1-0.7-0.2-0.9l-0.4-0.3c0.2-0.4,0.4-0.8,0.5-1.3l0.5,0.1c0.4,0,0.7-0.2,0.7-0.6l0-0.5
			C81.7,28.9,81.4,28.5,81,28.5z M74,33c-2.4-0.2-4.1-2.3-3.8-4.7c0.2-2.4,2.3-4.1,4.7-3.8c2.4,0.2,4.1,2.3,3.8,4.7
			C78.5,31.5,76.4,33.3,74,33z"/>
		
			<ellipse transform="matrix(9.878983e-02 -0.9951 0.9951 9.878983e-02 38.4899 100.0329)" fill="#FFFFFF" cx="74.5" cy="28.8" rx="3.1" ry="3.1"/>
	</g>
	<g>
		<path fill="#FFFFFF" d="M85,12.5l-0.3,0c0-0.3-0.1-0.6-0.1-0.9l0.3-0.1c0.2-0.1,0.3-0.4,0.2-0.6l-0.1-0.3
			c-0.1-0.2-0.4-0.3-0.6-0.2L84,10.5c-0.2-0.2-0.3-0.5-0.6-0.7l0.2-0.3c0.1-0.2,0.1-0.5-0.1-0.6l-0.3-0.2c-0.2-0.1-0.5-0.1-0.6,0.1
			l-0.2,0.3c-0.3-0.1-0.5-0.2-0.8-0.3l0-0.3c0-0.2-0.2-0.5-0.4-0.5l-0.3,0c-0.2,0-0.5,0.2-0.5,0.4l0,0.3c-0.3,0-0.6,0.1-0.9,0.1
			l-0.1-0.3c-0.1-0.2-0.4-0.3-0.6-0.2l-0.3,0.1c-0.2,0.1-0.3,0.4-0.2,0.6l0.1,0.3c-0.2,0.2-0.5,0.3-0.7,0.6l-0.3-0.2
			c-0.2-0.1-0.5-0.1-0.6,0.1L76.7,10c-0.1,0.2-0.1,0.5,0.1,0.6l0.3,0.2c-0.1,0.3-0.2,0.5-0.3,0.8l-0.3,0c-0.2,0-0.5,0.2-0.5,0.4
			l0,0.3c0,0.2,0.2,0.5,0.4,0.5l0.3,0c0,0.3,0.1,0.6,0.1,0.9l-0.3,0.1c-0.2,0.1-0.3,0.4-0.2,0.6l0.1,0.3c0.1,0.2,0.4,0.3,0.6,0.2
			l0.3-0.1c0.2,0.2,0.3,0.5,0.6,0.7l-0.2,0.3c-0.1,0.2-0.1,0.5,0.1,0.6l0.3,0.2c0.2,0.1,0.5,0.1,0.6-0.1l0.2-0.3
			c0.3,0.1,0.5,0.2,0.8,0.3l0,0.3c0,0.2,0.2,0.5,0.4,0.5l0.3,0c0.2,0,0.5-0.2,0.5-0.4l0-0.3c0.3,0,0.6-0.1,0.9-0.1l0.1,0.3
			c0.1,0.2,0.4,0.3,0.6,0.2l0.3-0.1c0.2-0.1,0.3-0.4,0.2-0.6L82.8,16c0.2-0.2,0.5-0.3,0.7-0.6l0.3,0.2c0.2,0.1,0.5,0.1,0.6-0.1
			l0.2-0.3c0.1-0.2,0.1-0.5-0.1-0.6l-0.3-0.2c0.1-0.3,0.2-0.5,0.3-0.8l0.3,0c0.2,0,0.5-0.2,0.5-0.4l0-0.3
			C85.4,12.7,85.2,12.5,85,12.5z M80.4,15.5c-1.6-0.2-2.7-1.5-2.5-3.1c0.2-1.6,1.5-2.7,3.1-2.5c1.6,0.2,2.7,1.5,2.5,3.1
			C83.3,14.5,81.9,15.6,80.4,15.5z"/>
		<g>
			
				<ellipse transform="matrix(9.878983e-02 -0.9951 0.9951 9.878983e-02 60.1081 91.6521)" fill="#FFFFFF" cx="80.7" cy="12.6" rx="2" ry="2"/>
		</g>
	</g>
	<g>
		<path fill="#193F56" d="M95.5,11.6l-0.4,0c0-0.3-0.1-0.7-0.2-1l0.3-0.2c0.2-0.1,0.3-0.4,0.2-0.7l-0.2-0.3
			c-0.1-0.2-0.4-0.3-0.7-0.2l-0.3,0.2c-0.2-0.3-0.4-0.5-0.7-0.7l0.2-0.3c0.1-0.2,0.1-0.5-0.2-0.7l-0.3-0.2c-0.2-0.1-0.5-0.1-0.7,0.2
			l-0.2,0.3c-0.3-0.1-0.6-0.2-0.9-0.3l0-0.4c0-0.3-0.2-0.5-0.5-0.5l-0.4,0c-0.3,0-0.5,0.2-0.5,0.5l0,0.4c-0.3,0-0.6,0.1-1,0.2
			l-0.2-0.3c-0.1-0.2-0.4-0.3-0.6-0.2l-0.3,0.2c-0.2,0.1-0.3,0.4-0.2,0.7l0.2,0.4c-0.3,0.2-0.5,0.4-0.7,0.7l-0.3-0.2
			c-0.2-0.1-0.5-0.1-0.6,0.2l-0.2,0.3c-0.1,0.2-0.1,0.5,0.2,0.7l0.3,0.2c-0.1,0.3-0.2,0.6-0.3,0.9l-0.4,0c-0.3,0-0.5,0.2-0.5,0.5
			l0,0.3c0,0.3,0.2,0.5,0.5,0.5l0.4,0c0,0.3,0.1,0.7,0.2,1l-0.3,0.2c-0.2,0.1-0.3,0.4-0.2,0.7l0.2,0.3c0.1,0.2,0.4,0.3,0.6,0.2
			l0.3-0.2c0.2,0.3,0.4,0.5,0.7,0.7l-0.2,0.3c-0.1,0.2-0.1,0.5,0.2,0.7l0.3,0.2c0.2,0.1,0.5,0.1,0.7-0.2l0.2-0.3
			c0.3,0.1,0.6,0.2,0.9,0.3l0,0.4c0,0.3,0.2,0.5,0.5,0.5l0.3,0c0.3,0,0.5-0.2,0.5-0.5l0-0.4c0.3,0,0.6-0.1,0.9-0.2l0.2,0.3
			c0.1,0.2,0.4,0.3,0.7,0.2l0.3-0.2c0.2-0.1,0.3-0.4,0.2-0.7l-0.2-0.3c0.3-0.2,0.5-0.4,0.7-0.7l0.3,0.2c0.2,0.1,0.5,0.1,0.7-0.2
			l0.2-0.3c0.1-0.2,0.1-0.5-0.1-0.7l-0.3-0.2c0.1-0.3,0.2-0.6,0.3-1l0.4,0c0.3,0,0.5-0.2,0.5-0.5l0-0.3C96,11.9,95.8,11.6,95.5,11.6
			z M90.7,15.3c-1.7,0-3.1-1.5-3-3.2S89.2,9,90.9,9c1.7,0,3.1,1.5,3,3.2C93.8,14,92.4,15.4,90.7,15.3z"/>
		<polygon fill="#193F56" points="92.3,11.8 92.3,13.1 91.2,13.7 89.9,13.7 89.3,12.6 89.3,11.3 90.4,10.7 91.7,10.7 		"/>
	</g>
	<g>
		<path fill="#193F56" d="M91.7,32.1l-0.4,0c-0.1-0.4-0.2-0.7-0.4-1.1l0.4-0.3c0.2-0.2,0.3-0.5,0.1-0.8l-0.2-0.3
			c-0.2-0.2-0.5-0.3-0.8-0.1L90,29.9c-0.3-0.3-0.6-0.5-0.9-0.7l0.2-0.4c0.1-0.3,0-0.6-0.3-0.7l-0.4-0.2c-0.3-0.1-0.6,0-0.7,0.3
			l-0.2,0.4c-0.4-0.1-0.7-0.1-1.1-0.2l0-0.4c0-0.3-0.3-0.5-0.6-0.5l-0.4,0c-0.3,0-0.5,0.3-0.5,0.6l0,0.4c-0.4,0.1-0.7,0.2-1.1,0.4
			l-0.3-0.4c-0.2-0.2-0.5-0.3-0.8-0.1l-0.3,0.2c-0.2,0.2-0.3,0.5-0.1,0.8l0.3,0.4c-0.3,0.3-0.5,0.6-0.7,0.9l-0.4-0.2
			c-0.3-0.1-0.6,0-0.7,0.3l-0.2,0.4c-0.1,0.3,0,0.6,0.3,0.7l0.4,0.2c-0.1,0.4-0.1,0.7-0.2,1.1l-0.4,0c-0.3,0-0.5,0.3-0.5,0.6l0,0.4
			c0,0.3,0.3,0.5,0.6,0.5l0.4,0c0.1,0.4,0.2,0.7,0.4,1.1l-0.4,0.3c-0.2,0.2-0.3,0.5-0.1,0.8l0.2,0.3c0.2,0.2,0.5,0.3,0.8,0.1
			l0.4-0.3c0.3,0.3,0.6,0.5,0.9,0.7l-0.2,0.4c-0.1,0.3,0,0.6,0.3,0.7l0.4,0.2c0.3,0.1,0.6,0,0.7-0.3l0.2-0.4
			c0.4,0.1,0.7,0.1,1.1,0.2l0,0.4c0,0.3,0.3,0.5,0.6,0.5l0.4,0c0.3,0,0.5-0.3,0.5-0.6l0-0.4c0.4-0.1,0.7-0.2,1.1-0.4l0.3,0.4
			c0.2,0.2,0.5,0.3,0.8,0.1l0.3-0.2c0.2-0.2,0.3-0.5,0.1-0.8l-0.3-0.4c0.3-0.3,0.5-0.6,0.7-0.9l0.4,0.2c0.3,0.1,0.6,0,0.7-0.3
			l0.2-0.4c0.1-0.3,0-0.6-0.3-0.7l-0.4-0.2c0.1-0.4,0.1-0.7,0.2-1.1l0.4,0c0.3,0,0.5-0.3,0.5-0.6l0-0.4C92.3,32.3,92,32.1,91.7,32.1
			z M86.7,37.1c-2,0.2-3.8-1.2-4-3.2c-0.2-2,1.2-3.8,3.2-4c2-0.2,3.8,1.2,4,3.2C90.2,35.1,88.7,36.9,86.7,37.1z"/>
		
			<ellipse transform="matrix(0.9943 -0.1071 0.1071 0.9943 -3.0893 9.4368)" fill="#193F56" cx="86.3" cy="33.5" rx="2.6" ry="2.6"/>
	</g>
	<linearGradient id="SVGID_2_" gradientUnits="userSpaceOnUse" x1="75.2681" y1="20.4322" x2="92.1604" y2="26.7056">
		<stop  offset="0" style="stop-color:#FF6A19"/>
		<stop  offset="1" style="stop-color:#FF5100"/>
	</linearGradient>
	<path fill="url(#SVGID_2_)" d="M89.2,32.2c-0.1-0.3-0.2-0.6-0.3-0.9c-0.2-0.5-0.3-1-0.5-1.6c-0.5-1.5-1-3.1-1.4-4.6
		c-0.6-1.8-1.1-3.6-1.7-5.4c-0.5-1.6-1-3.2-1.5-4.8c-0.3-1-0.6-1.9-0.9-2.9c0-0.1-0.1-0.2-0.1-0.3c-0.4-0.7-1.2-1.3-2.2-1.3
		c-0.8,0-1.5,0.5-1.9,1.1c-0.7,1.1,0,2.5,0.3,3.7c0.2,0.6,0.3,1.3,0.5,1.9c0.4,1.8,0.8,3.5,1.2,5.3c0.5,1.9,0.9,3.9,1.4,5.8
		c0.4,1.6,0.7,3.1,1.1,4.7c0.1,0.8,0.2,1.6,0.6,2.3c0.4,0.7,1.1,1.2,1.9,1.4c1.7,0.4,3.3-0.6,3.8-2.2C89.5,33.5,89.4,32.9,89.2,32.2
		z M88.9,34.1c-0.4,1.4-1.8,2.2-3.1,1.9c-0.5-0.1-0.9-0.4-1.3-0.7c-0.4-0.4-0.5-0.9-0.6-1.4c-0.1-0.5-0.2-0.9-0.3-1.4
		c-0.4-1.5-0.7-3-1.1-4.5c-0.4-1.8-0.9-3.6-1.3-5.4c-0.4-1.7-0.8-3.4-1.2-5.1c-0.3-1.1-0.5-2.2-0.8-3.3c0-0.2-0.1-0.4-0.1-0.6
		c-0.1-0.3-0.2-0.5-0.2-0.7c0-0.5,0.1-1,0.4-1.4c0.5-0.8,1.6-1,2.5-0.6c1.1,0.5,1.2,1.9,1.6,2.9c0.3,1.1,0.6,2.1,1,3.2
		c0.4,1.3,0.8,2.7,1.2,4c0.4,1.4,0.8,2.8,1.3,4.2c0.4,1.2,0.7,2.5,1.1,3.7c0.3,0.9,0.5,1.8,0.8,2.6c0.1,0.3,0.2,0.6,0.3,1
		C88.9,32.9,89,33.5,88.9,34.1z"/>
</g>
<g id="Camada_5">
	<g>
		<linearGradient id="SVGID_3_" gradientUnits="userSpaceOnUse" x1="67.9034" y1="15.7275" x2="60.2159" y2="12.9462">
			<stop  offset="0.549" style="stop-color:#FF6A19"/>
			<stop  offset="0.9915" style="stop-color:#FF5100"/>
		</linearGradient>
		<path fill="url(#SVGID_3_)" d="M68.3,17.6h-2.9l-1.6-1.2l-2-1.5l-1.7-1.3c-0.3-0.2-0.4-0.7-0.1-1l1.3-1.7c0.2-0.3,0.7-0.4,1-0.1
			l1.8,1.4l1.8,1.3l1.9,1.4L68.3,17.6z"/>
		<path fill="#2D4D67" d="M61.8,15l2,1.5l-6.6,9.3c-0.3,0.4-0.8,0.4-1.1,0.2l-1.3-1c-0.4-0.3-0.4-0.8-0.1-1.1L61.8,15z"/>
		<path fill="#324956" d="M65.8,13.5L64,12.2c0.3-0.2,0.7-0.3,0.9,0l0.7,0.6C65.8,13,65.9,13.3,65.8,13.5z"/>
	</g>
	<g id="Camada_6">
		<linearGradient id="SVGID_4_" gradientUnits="userSpaceOnUse" x1="60.1713" y1="18.2968" x2="59.0469" y2="19.3924">
			<stop  offset="0" style="stop-color:#FF6A19"/>
			<stop  offset="1" style="stop-color:#FF5100"/>
		</linearGradient>
		<path fill="url(#SVGID_4_)" d="M67.5,24c-0.1-0.8-0.2-1.5-0.3-2.3c0,0-1-1.1-1-1.1h-3.6l-4.9-5.3v-3.2L57,11.5
			c-0.4,0-0.8-0.1-1.2-0.1c-0.4,0-0.8-0.2-1.2-0.1c0.2,0.3,0.5,0.5,0.8,0.7c0.3,0.2,0.5,0.5,0.8,0.7v1.6l-0.5,0.3l-0.1,0.1
			c0,0-1.8,0-1.8,0c0,0-0.2-0.2-0.2-0.2c-0.2-0.2-0.3-0.3-0.5-0.5c-0.2-0.2-0.4-0.4-0.6-0.5c-0.2-0.2-0.4-0.4-0.6-0.5
			c0,0.1,0,0.2,0,0.3c0.1,0.8,0.2,1.5,0.3,2.3c0,0,1,1.1,1,1.1H57l4.9,5.3v3.2l0.6,0.6c0.4,0,0.8,0.1,1.2,0.1c0.4,0,0.8,0.2,1.2,0.1
			c-0.2-0.3-0.5-0.5-0.8-0.7c-0.3-0.2-0.5-0.5-0.8-0.7V23l0.5-0.3l0.1-0.1c0,0,1.8,0,1.8,0c0,0,0.2,0.2,0.2,0.2
			c0.2,0.2,0.3,0.3,0.5,0.5c0.2,0.2,0.4,0.4,0.6,0.5c0.2,0.2,0.4,0.4,0.6,0.5C67.6,24.2,67.5,24.1,67.5,24z"/>
		
			<ellipse transform="matrix(0.7273 -0.6864 0.6864 0.7273 3.4939 46.1298)" fill="#FFFFFF" cx="59.8" cy="18.7" rx="0.3" ry="2.2"/>
		
			<linearGradient id="SVGID_5_" gradientUnits="userSpaceOnUse" x1="93.5695" y1="20.1126" x2="92.3891" y2="21.2628" gradientTransform="matrix(0.8923 0.4515 -0.4515 0.8923 19.4357 -40.4412)">
			<stop  offset="0" style="stop-color:#FF6A19"/>
			<stop  offset="1" style="stop-color:#FF5100"/>
		</linearGradient>
		<path fill="url(#SVGID_5_)" d="M98,28.3c0.3-0.8,0.5-1.5,0.8-2.3c0,0-0.4-1.5-0.4-1.5L95,22.9l-2.1-7.1l1.5-2.9l-0.3-0.8
			c-0.3-0.2-0.7-0.4-1-0.7c-0.3-0.2-0.7-0.5-1-0.6c0,0.3,0.3,0.7,0.4,1c0.1,0.3,0.3,0.6,0.4,1l-0.8,1.5l-0.6,0.1l-0.2,0.1
			c0,0-1.7-0.9-1.7-0.9c0,0-0.1-0.2-0.1-0.3c-0.1-0.2-0.2-0.4-0.2-0.6c-0.1-0.2-0.2-0.5-0.3-0.7c-0.1-0.2-0.1-0.5-0.3-0.7
			c0,0.1-0.1,0.2-0.1,0.2c-0.3,0.8-0.5,1.5-0.8,2.3c0,0,0.4,1.5,0.4,1.5l3.3,1.7l2.1,7.1l-1.5,2.9l0.3,0.8c0.3,0.2,0.7,0.4,1,0.7
			c0.3,0.2,0.7,0.5,1,0.6c0-0.3-0.3-0.7-0.4-1c-0.1-0.3-0.3-0.6-0.4-1l0.8-1.5l0.6-0.1l0.2-0.1c0,0,1.7,0.9,1.7,0.9
			c0,0,0.1,0.2,0.1,0.3c0.1,0.2,0.2,0.4,0.2,0.6c0.1,0.2,0.2,0.5,0.3,0.7c0.1,0.2,0.1,0.5,0.3,0.7C98,28.5,98,28.4,98,28.3z"/>
		
			<ellipse transform="matrix(0.9536 -0.3011 0.3011 0.9536 -1.6664 29.0253)" fill="#FFFFFF" cx="93.3" cy="19.9" rx="0.3" ry="2.3"/>
	</g>
</g>
<g id="Camada_7">
	<path fill="#193F56" d="M74.8,25.3c-0.4,0-0.8,0-1.2,0.1c-0.4,0.1-0.7,0.2-1,0.4c-0.8,0.5-1.5,1-2.2,1.6c-0.7,0.6-1.5,1.1-2.2,1.6
		c-1.2,0.9-2.4,1.7-3.6,2.6c-1.2,0.9-2.5,1.8-3.7,2.7c-1.1,0.8-2.1,1.5-3.2,2.3c-1.2,0.9-2.9,1.8-2.8,3.5c0,0.7,0.4,1.4,1,1.9
		s1.3,0.7,2,0.5c0.6-0.1,1.1-0.4,1.6-0.7c0.7-0.5,1.4-0.9,2.1-1.3c0.8-0.5,1.6-0.9,2.3-1.4c0.9-0.5,1.8-1.1,2.8-1.6
		c1-0.6,1.9-1.2,2.9-1.7c0.9-0.5,1.8-1.1,2.8-1.6c0.8-0.5,1.6-0.9,2.3-1.4c0.4-0.3,0.9-0.5,1.3-0.8c0.7-0.4,1.3-0.8,1.6-1.5
		c0.2-0.4,0.3-0.8,0.4-1.3C78.2,27.2,76.8,25.5,74.8,25.3z M77.1,30.3c-0.4,0.7-1.3,1.1-2,1.5c-0.9,0.5-1.7,1-2.6,1.6
		c-0.9,0.5-1.7,1-2.6,1.5c-0.9,0.5-1.8,1.1-2.8,1.6c-0.9,0.5-1.8,1.1-2.7,1.6c-0.8,0.5-1.6,1-2.4,1.4c-0.7,0.4-1.4,0.9-2.1,1.3
		c-0.4,0.2-0.7,0.4-1.1,0.7c-0.3,0.2-0.6,0.4-1,0.5c-0.5,0.1-0.9,0-1.4-0.1c-0.6-0.3-1.1-0.9-1.2-1.6c-0.1-0.5,0-0.9,0.2-1.4
		c0.2-0.5,0.7-0.7,1-1c0.5-0.4,1-0.7,1.5-1.1c0.8-0.6,1.5-1.1,2.3-1.7c0.9-0.7,1.8-1.3,2.7-2c0.9-0.7,1.9-1.4,2.8-2
		c0.9-0.6,1.7-1.3,2.6-1.9c0.7-0.5,1.4-1,2.1-1.5c0.4-0.3,0.7-0.5,1.1-0.8c0.3-0.2,0.6-0.5,0.9-0.7c0.6-0.4,1.3-0.6,2.1-0.6
		c1.7,0.2,2.9,1.7,2.7,3.4C77.5,29.5,77.3,30,77.1,30.3z"/>
</g>
</svg>
