<?xml version="1.0" encoding="UTF-8"?>
<!DOCTYPE svg PUBLIC "-//W3C//DTD SVG 1.1//EN" "http://www.w3.org/Graphics/SVG/1.1/DTD/svg11.dtd">
<!-- Creator: CorelDRAW X8 -->
<svg xmlns="http://www.w3.org/2000/svg" xml:space="preserve" width="21.2234mm" height="3.5005mm" version="1.1" style="shape-rendering:geometricPrecision; text-rendering:geometricPrecision; image-rendering:optimizeQuality; fill-rule:evenodd; clip-rule:evenodd"
viewBox="0 0 390998 64490"
 xmlns:xlink="http://www.w3.org/1999/xlink">
 <defs>
  <style type="text/css">
   <![CDATA[
    .fil8 {fill:url(#id0)}
    .fil0 {fill:url(#id1)}
    .fil5 {fill:url(#id2)}
    .fil3 {fill:url(#id3)}
    .fil7 {fill:url(#id4)}
    .fil4 {fill:url(#id5)}
    .fil1 {fill:url(#id6)}
    .fil2 {fill:url(#id7)}
    .fil6 {fill:url(#id8)}
   ]]>
  </style>
  <linearGradient id="id0" gradientUnits="userSpaceOnUse" x1="445252" y1="32245.7" x2="-54251.9" y2="32245.7">
   <stop offset="0" style="stop-opacity:1; stop-color:fuchsia"/>
   <stop offset="1" style="stop-opacity:1; stop-color:aqua"/>
  </linearGradient>
  <linearGradient id="id1" gradientUnits="userSpaceOnUse" xlink:href="#id0" x1="445252" y1="32245.7" x2="-54251.9" y2="32245.7">
  </linearGradient>
  <linearGradient id="id2" gradientUnits="userSpaceOnUse" xlink:href="#id0" x1="445252" y1="32245.7" x2="-54251.9" y2="32245.7">
  </linearGradient>
  <linearGradient id="id3" gradientUnits="userSpaceOnUse" xlink:href="#id0" x1="445252" y1="32245.7" x2="-54251.9" y2="32245.7">
  </linearGradient>
  <linearGradient id="id4" gradientUnits="userSpaceOnUse" xlink:href="#id0" x1="445252" y1="32245.7" x2="-54251.9" y2="32245.7">
  </linearGradient>
  <linearGradient id="id5" gradientUnits="userSpaceOnUse" xlink:href="#id0" x1="445252" y1="32245.7" x2="-54251.9" y2="32245.7">
  </linearGradient>
  <linearGradient id="id6" gradientUnits="userSpaceOnUse" xlink:href="#id0" x1="445252" y1="32245.7" x2="-54251.9" y2="32245.7">
  </linearGradient>
  <linearGradient id="id7" gradientUnits="userSpaceOnUse" xlink:href="#id0" x1="445252" y1="32245.7" x2="-54251.9" y2="32245.7">
  </linearGradient>
  <linearGradient id="id8" gradientUnits="userSpaceOnUse" xlink:href="#id0" x1="445252" y1="32245.7" x2="-54251.9" y2="32245.7">
  </linearGradient>
 </defs>
 <g id="Camada_x0020_1">
  <metadata id="CorelCorpID_0Corel-Layer"/>
  <g id="_1206186896">
   <path class="fil0" d="M51846 43467c-599,2992 -1671,5772 -3217,8340 -1547,2570 -3454,4790 -5724,6660 -2269,1870 -4825,3342 -7667,4414 -2843,1072 -5861,1609 -9053,1609 -3591,0 -6983,-688 -10175,-2058 -3191,-1371 -5973,-3243 -8342,-5612 -2370,-2369 -4239,-5149 -5610,-8342 -1373,-3191 -2058,-6608 -2058,-10249 0,-3590 685,-6982 2058,-10175 1371,-3190 3240,-5972 5610,-8341 2369,-2370 5151,-4240 8342,-5610 3192,-1373 6584,-2058 10175,-2058 3192,0 6210,536 9053,1608 2842,1072 5398,2544 7667,4414 2270,1870 4177,4077 5724,6622 1546,2544 2618,5311 3217,8303l-12717 0c-1049,-2543 -2733,-4626 -5052,-6246 -2319,-1621 -4950,-2431 -7892,-2431 -1946,0 -3766,361 -5461,1085 -1697,722 -3180,1719 -4453,2992 -1271,1271 -2268,2743 -2992,4414 -722,1671 -1085,3478 -1085,5423 0,1946 363,3766 1085,5461 724,1697 1721,3180 2992,4453 1273,1271 2756,2268 4453,2992 1695,724 3515,1085 5461,1085 2942,0 5573,-811 7892,-2432 2319,-1621 4003,-3729 5052,-6321l12717 0z"/>
   <path class="fil1" d="M128102 11969c3143,0 6085,599 8829,1797 2743,1197 5136,2818 7181,4861 2045,2045 3653,4440 4827,7184 1171,2743 1757,5685 1757,8828l0 29626 -12194 0 0 -29626c0,-1446 -275,-2806 -824,-4077 -549,-1273 -1284,-2382 -2207,-3329 -923,-949 -2019,-1697 -3292,-2246 -1271,-549 -2631,-822 -4077,-822 -1446,0 -2806,273 -4077,822 -1271,549 -2382,1297 -3329,2246 -949,947 -1697,2056 -2246,3329 -547,1271 -821,2631 -821,4077l0 1721 0 27905 -12196 0 0 -27905 0 -1721 0 -13917 -6957 0 5162 -8753 1795 0 6958 0 5238 0 0 2620c1595,-849 3266,-1498 5011,-1945 1746,-450 3567,-675 5462,-675z"/>
   <path class="fil2" d="M175011 11969c3141,0 6085,599 8828,1797 2743,1197 5136,2818 7181,4861 2045,2045 3654,4440 4825,7184 1174,2743 1760,5685 1760,8828l0 29626 -12196 0 0 -29626c0,-1446 -275,-2806 -822,-4077 -549,-1273 -1284,-2382 -2207,-3329 -923,-949 -2021,-1697 -3292,-2246 -1271,-549 -2631,-822 -4077,-822 -1446,0 -2806,273 -4077,822 -1273,549 -2382,1297 -3331,2246 -947,947 -1695,2056 -2244,3329 -549,1271 -822,2631 -822,4077l0 1721 0 27905 -12196 0 0 -27905 0 -1721 0 -13917 -6958 0 5162 -8753 1796 0 6959 0 5237 0 0 2620c1596,-849 3267,-1498 5011,-1945 1747,-450 3567,-675 5463,-675z"/>
   <path class="fil3" d="M251096 43392c-599,2991 -1684,5773 -3254,8342 -1571,2568 -3480,4788 -5724,6658 -2244,1870 -4788,3329 -7631,4377 -2842,1046 -5860,1571 -9053,1571 -3640,0 -7045,-687 -10211,-2057 -3167,-1373 -5936,-3243 -8305,-5612 -2368,-2369 -4240,-5136 -5610,-8303 -1373,-3169 -2058,-6572 -2058,-10214 0,-3640 685,-7045 2058,-10212 1370,-3167 3242,-5934 5610,-8303 2369,-2369 5138,-4239 8305,-5612 3166,-1370 6571,-2058 10211,-2058 2694,0 5262,387 7707,1161 2443,772 4699,1857 6770,3254 2071,1396 3915,3054 5536,4976 1622,1919 2931,4027 3928,6321 249,549 450,1048 599,1495l-1198 2021 -4338 6957 -16235 0 6434 -10398c-1248,-1148 -2657,-2032 -4228,-2657 -1570,-622 -3228,-934 -4975,-934 -1945,0 -3765,361 -5460,1084 -1697,724 -3180,1720 -4453,2993 -1271,1272 -2268,2755 -2992,4451 -724,1695 -1085,3517 -1085,5461 0,1945 361,3766 1085,5462 724,1695 1721,3180 2992,4451 1273,1272 2756,2270 4453,2992 1695,724 3515,1085 5460,1085 2943,0 5573,-821 7893,-2468 2319,-1645 4003,-3740 5050,-6284l12719 0z"/>
   <path class="fil4" d="M303391 43467c-599,2992 -1671,5772 -3216,8340 -1548,2570 -3455,4790 -5724,6660 -2270,1870 -4825,3342 -7668,4414 -2843,1072 -5860,1609 -9053,1609 -3591,0 -6982,-688 -10175,-2058 -3191,-1371 -5973,-3243 -8342,-5612 -2369,-2369 -4239,-5149 -5610,-8342 -1372,-3191 -2058,-6608 -2058,-10249 0,-3590 686,-6982 2058,-10175 1371,-3190 3241,-5972 5610,-8341 2369,-2370 5151,-4240 8342,-5610 3193,-1373 6584,-2058 10175,-2058 3193,0 6210,536 9053,1608 2843,1072 5398,2544 7668,4414 2269,1870 4176,4077 5724,6622 1545,2544 2617,5311 3216,8303l-12717 0c-1048,-2543 -2732,-4626 -5052,-6246 -2319,-1621 -4950,-2431 -7892,-2431 -1946,0 -3766,361 -5463,1085 -1694,722 -3178,1719 -4451,2992 -1271,1271 -2267,2743 -2991,4414 -723,1671 -1086,3478 -1086,5423 0,1946 363,3766 1086,5461 724,1697 1720,3180 2991,4453 1273,1271 2757,2268 4451,2992 1697,724 3517,1085 5463,1085 2942,0 5573,-811 7892,-2432 2320,-1621 4004,-3729 5052,-6321l12717 0z"/>
   <path class="fil5" d="M315959 24388l0 15638c0,1794 400,3441 1198,4937 799,1496 1796,2767 2994,3815 1195,1047 2505,1870 3927,2469 1421,599 2780,897 4077,897l10474 0 0 12270 -10474 0c-3043,0 -6035,-698 -8977,-2095 -2944,-1396 -5562,-3242 -7856,-5536 -2295,-2293 -4139,-4900 -5536,-7818 -1396,-2917 -2095,-5898 -2095,-8939l0 -31273 -6809 0 5162 -8753 8829 0 5086 0 0 12270 22670 0 0 12118 -22670 0z"/>
   <path class="fil6" d="M390998 38305l0 26035 -12194 0 0 -4040c-2045,1297 -4239,2294 -6585,2992 -2343,698 -4788,1048 -7330,1048 -3593,0 -6982,-687 -10175,-2057 -3193,-1373 -5973,-3230 -8342,-5575 -2369,-2344 -4239,-5111 -5612,-8304 -1370,-3192 -2058,-6584 -2058,-10175 0,-3590 688,-6982 2058,-10175 1373,-3190 3243,-5972 5612,-8341 2369,-2370 5149,-4240 8342,-5610 3193,-1373 6582,-2058 10175,-2058 3591,0 6982,685 10175,2058 3191,1370 5960,3240 8303,5610 2344,2369 4202,5151 5575,8341 1371,3193 2056,6585 2056,10175l0 76zm-26109 13839c1896,0 3690,-361 5387,-1085 1695,-722 3178,-1720 4451,-2992 1271,-1271 2269,-2743 2992,-4414 724,-1671 1085,-3478 1085,-5424 0,-1945 -361,-3765 -1085,-5462 -723,-1695 -1721,-3178 -2992,-4451 -1273,-1271 -2743,-2268 -4414,-2992 -1671,-724 -3479,-1085 -5424,-1085 -1946,0 -3753,361 -5424,1085 -1673,724 -3143,1721 -4414,2992 -1273,1273 -2270,2756 -2994,4451 -722,1697 -1085,3517 -1085,5462 0,1896 363,3691 1085,5387 724,1695 1721,3180 2994,4451 1271,1272 2741,2270 4414,2992 1671,724 3478,1085 5424,1085z"/>
   <path class="fil7" d="M78824 53104c-158,0 124,0 0,0zm-10088 -26085c1461,-1549 2587,-2165 3836,-2500 1162,2384 1661,3567 2500,5824 26,70 53,141 79,215 15,-64 28,-127 40,-191 500,-2301 1340,-4151 2537,-6487 1962,-3828 4689,-7487 7130,-10396 -9687,-2419 -15133,-1297 -24954,302l3397 2995c-8087,6093 -11009,14007 -11033,22150 -13,4776 1343,8854 3940,13009 6043,9672 14085,12364 25542,12513 -3469,-135 -6417,-676 -9302,-1563 2699,-3774 4680,-6193 6500,-9786 -57,0 -98,0 -124,0 -12,0 98,0 -51,0 -149,0 -291,-3 -927,-33 -5368,-247 -9814,-3263 -12223,-7706 -1071,-1972 -1601,-4365 -1872,-6684 -525,-4512 2001,-8493 4985,-11662z"/>
   <path class="fil8" d="M78082 23430c158,0 -123,0 0,0zm10087 26085c-1459,1550 -2585,2165 -3834,2500 -1163,-2384 -1662,-3566 -2500,-5823 -28,-70 -54,-142 -81,-216 -13,65 -26,127 -41,190 -499,2301 -1337,4151 -2537,6489 -1962,3828 -4686,7485 -7127,10396 9684,2419 15132,1297 24953,-302l-3397 -2998c8086,-6090 11010,-14005 11032,-22150 13,-4773 -1341,-8852 -3939,-13008 -6045,-9670 -14084,-12362 -25543,-12511 3469,134 6416,676 9301,1562 -2699,3775 -4677,6194 -6497,9786 57,0 95,0 123,0 13,0 -99,0 50,0 151,0 293,4 928,33 5369,246 9814,3263 12224,7707 1070,1971 1601,4364 1870,6684 525,4510 -2001,8493 -4985,11661z"/>
  </g>
 </g>
</svg>
