<?xml version="1.0" encoding="utf-8"?>
<!-- Generator: Adobe Illustrator 21.1.0, SVG Export Plug-In . SVG Version: 6.00 Build 0)  -->
<svg version="1.1" id="Camada_1" xmlns="http://www.w3.org/2000/svg" xmlns:xlink="http://www.w3.org/1999/xlink" x="0px" y="0px"
	 viewBox="0 0 72 11.4" enable-background="new 0 0 72 11.4" xml:space="preserve">
<g>
	<linearGradient id="C_2_" gradientUnits="userSpaceOnUse" x1="-0.5768" y1="6.7974" x2="75.7857" y2="6.7253">
		<stop  offset="0" style="stop-color:#00FFFF"/>
		<stop  offset="1" style="stop-color:#FF00FF"/>
	</linearGradient>
	<path id="C" fill="url(#C_2_)" d="M9.2,7.7c-0.1,0.5-0.3,1-0.6,1.5C8.4,9.7,8,10,7.6,10.4c-0.4,0.3-0.9,0.6-1.4,0.8
		c-0.5,0.2-1,0.3-1.6,0.3c-0.6,0-1.2-0.1-1.8-0.4c-0.6-0.2-1.1-0.6-1.5-1c-0.4-0.4-0.8-0.9-1-1.5C0.1,8,0,7.4,0,6.8
		C0,6.1,0.1,5.5,0.4,5c0.2-0.6,0.6-1.1,1-1.5c0.4-0.4,0.9-0.8,1.5-1C3.4,2.3,4,2.1,4.6,2.1c0.6,0,1.1,0.1,1.6,0.3
		c0.5,0.2,1,0.5,1.4,0.8c0.4,0.3,0.7,0.7,1,1.2c0.3,0.5,0.5,0.9,0.6,1.5H6.9C6.8,5.4,6.5,5,6,4.7C5.6,4.5,5.2,4.3,4.6,4.3
		c-0.3,0-0.7,0.1-1,0.2C3.4,4.6,3.1,4.8,2.9,5C2.7,5.3,2.5,5.5,2.4,5.8c-0.1,0.3-0.2,0.6-0.2,1c0,0.3,0.1,0.7,0.2,1
		c0.1,0.3,0.3,0.6,0.5,0.8c0.2,0.2,0.5,0.4,0.8,0.5c0.3,0.1,0.6,0.2,1,0.2c0.5,0,1-0.1,1.4-0.4c0.4-0.3,0.7-0.7,0.9-1.1H9.2z"/>
	<linearGradient id="N_2_" gradientUnits="userSpaceOnUse" x1="-0.5768" y1="6.7883" x2="75.7857" y2="6.7162">
		<stop  offset="0" style="stop-color:#00FFFF"/>
		<stop  offset="1" style="stop-color:#FF00FF"/>
	</linearGradient>
	<path id="N" fill="url(#N_2_)" d="M23.4,2.1c0.6,0,1.1,0.1,1.6,0.3c0.5,0.2,0.9,0.5,1.3,0.9c0.4,0.4,0.6,0.8,0.9,1.3
		c0.2,0.5,0.3,1,0.3,1.6v5.3h-2.2V6.1c0-0.3,0-0.5-0.1-0.7C25,5.2,24.9,5,24.7,4.8c-0.2-0.2-0.4-0.3-0.6-0.4
		c-0.2-0.1-0.5-0.1-0.7-0.1c-0.3,0-0.5,0-0.7,0.1s-0.4,0.2-0.6,0.4c-0.2,0.2-0.3,0.4-0.4,0.6c-0.1,0.2-0.1,0.5-0.1,0.7v0.3v5h-2.2
		v-5V6.1V3.7h-1.2L19,2.1h0.3h1.2h0.9v0.5c0.3-0.2,0.6-0.3,0.9-0.3C22.7,2.2,23.1,2.1,23.4,2.1z"/>
	<linearGradient id="N_3_" gradientUnits="userSpaceOnUse" x1="-0.5768" y1="6.7967" x2="75.7857" y2="6.7246">
		<stop  offset="0" style="stop-color:#00FFFF"/>
		<stop  offset="1" style="stop-color:#FF00FF"/>
	</linearGradient>
	<path id="N_1_" fill="url(#N_3_)" d="M32.4,2.1c0.6,0,1.1,0.1,1.6,0.3c0.5,0.2,0.9,0.5,1.3,0.9c0.4,0.4,0.6,0.8,0.9,1.3
		c0.2,0.5,0.3,1,0.3,1.6v5.3h-2.2V6.1c0-0.3,0-0.5-0.1-0.7C34,5.2,33.8,5,33.7,4.8c-0.2-0.2-0.4-0.3-0.6-0.4s-0.5-0.1-0.7-0.1
		s-0.5,0-0.7,0.1c-0.2,0.1-0.4,0.2-0.6,0.4c-0.2,0.2-0.3,0.4-0.4,0.6c-0.1,0.2-0.1,0.5-0.1,0.7v0.3v5h-2.2v-5V6.1V3.7h-1.2L28,2.1
		h0.3h1.2h0.9v0.5c0.3-0.2,0.6-0.3,0.9-0.3C31.7,2.2,32,2.1,32.4,2.1z"/>
	<linearGradient id="E_1_" gradientUnits="userSpaceOnUse" x1="-0.5768" y1="6.8123" x2="75.7858" y2="6.7402">
		<stop  offset="0" style="stop-color:#00FFFF"/>
		<stop  offset="1" style="stop-color:#FF00FF"/>
	</linearGradient>
	<path id="E" fill="url(#E_1_)" d="M46.2,7.7c-0.1,0.5-0.3,1-0.6,1.5c-0.3,0.5-0.6,0.8-1,1.2c-0.4,0.3-0.8,0.6-1.4,0.8
		c-0.5,0.2-1,0.3-1.6,0.3c-0.6,0-1.3-0.1-1.8-0.4c-0.6-0.2-1.1-0.6-1.5-1c-0.4-0.4-0.8-0.9-1-1.5C37.1,8,37,7.4,37,6.8
		c0-0.6,0.1-1.3,0.4-1.8c0.2-0.6,0.6-1.1,1-1.5c0.4-0.4,0.9-0.8,1.5-1c0.6-0.2,1.2-0.4,1.8-0.4c0.5,0,0.9,0.1,1.4,0.2
		c0.4,0.1,0.8,0.3,1.2,0.6c0.4,0.2,0.7,0.5,1,0.9c0.3,0.3,0.5,0.7,0.7,1.1C45.9,5,46,5.1,46,5.2l-0.2,0.4L45,6.8h-2.9l1.1-1.8
		c-0.2-0.2-0.5-0.4-0.8-0.5c-0.3-0.1-0.6-0.2-0.9-0.2c-0.3,0-0.7,0.1-1,0.2c-0.3,0.1-0.6,0.3-0.8,0.5c-0.2,0.2-0.4,0.5-0.5,0.8
		c-0.1,0.3-0.2,0.6-0.2,1c0,0.3,0.1,0.7,0.2,1c0.1,0.3,0.3,0.6,0.5,0.8c0.2,0.2,0.5,0.4,0.8,0.5c0.3,0.1,0.6,0.2,1,0.2
		c0.5,0,1-0.1,1.4-0.4c0.4-0.3,0.7-0.7,0.9-1.1H46.2z"/>
	<linearGradient id="C_3_" gradientUnits="userSpaceOnUse" x1="-0.5768" y1="6.8414" x2="75.7858" y2="6.7693">
		<stop  offset="0" style="stop-color:#00FFFF"/>
		<stop  offset="1" style="stop-color:#FF00FF"/>
	</linearGradient>
	<path id="C_1_" fill="url(#C_3_)" d="M55.8,7.7c-0.1,0.5-0.3,1-0.6,1.5c-0.3,0.5-0.6,0.9-1,1.2c-0.4,0.3-0.9,0.6-1.4,0.8
		c-0.5,0.2-1,0.3-1.6,0.3c-0.6,0-1.2-0.1-1.8-0.4c-0.6-0.2-1.1-0.6-1.5-1c-0.4-0.4-0.8-0.9-1-1.5c-0.2-0.6-0.4-1.2-0.4-1.8
		c0-0.6,0.1-1.2,0.4-1.8c0.2-0.6,0.6-1.1,1-1.5c0.4-0.4,0.9-0.8,1.5-1c0.6-0.2,1.2-0.4,1.8-0.4c0.6,0,1.1,0.1,1.6,0.3s1,0.5,1.4,0.8
		c0.4,0.3,0.7,0.7,1,1.2c0.3,0.5,0.5,0.9,0.6,1.5h-2.3c-0.2-0.5-0.5-0.8-0.9-1.1c-0.4-0.3-0.9-0.4-1.4-0.4c-0.3,0-0.7,0.1-1,0.2
		C50,4.6,49.7,4.8,49.5,5c-0.2,0.2-0.4,0.5-0.5,0.8c-0.1,0.3-0.2,0.6-0.2,1c0,0.3,0.1,0.7,0.2,1c0.1,0.3,0.3,0.6,0.5,0.8
		c0.2,0.2,0.5,0.4,0.8,0.5c0.3,0.1,0.6,0.2,1,0.2c0.5,0,1-0.1,1.4-0.4c0.4-0.3,0.7-0.7,0.9-1.1H55.8z"/>
	<linearGradient id="T_1_" gradientUnits="userSpaceOnUse" x1="-0.5778" y1="5.7731" x2="75.7848" y2="5.701">
		<stop  offset="0" style="stop-color:#00FFFF"/>
		<stop  offset="1" style="stop-color:#FF00FF"/>
	</linearGradient>
	<path id="T" fill="url(#T_1_)" d="M58.4,4.3v2.8c0,0.3,0.1,0.6,0.2,0.9c0.1,0.3,0.3,0.5,0.5,0.7c0.2,0.2,0.4,0.3,0.7,0.4
		c0.3,0.1,0.5,0.2,0.7,0.2h1.9v2.2h-1.9c-0.5,0-1.1-0.1-1.6-0.4c-0.5-0.2-1-0.6-1.4-1c-0.4-0.4-0.7-0.9-1-1.4
		c-0.2-0.5-0.4-1-0.4-1.6V1.6H55L55.9,0h1.6h0.9v2.2h4v2.2H58.4z"/>
	<linearGradient id="A_1_" gradientUnits="userSpaceOnUse" x1="-0.5768" y1="6.8455" x2="75.7858" y2="6.7734">
		<stop  offset="0" style="stop-color:#00FFFF"/>
		<stop  offset="1" style="stop-color:#FF00FF"/>
	</linearGradient>
	<path id="A" fill="url(#A_1_)" d="M72,6.8v4.6h-2.2v-0.7c-0.4,0.2-0.8,0.4-1.2,0.5c-0.4,0.1-0.8,0.2-1.3,0.2
		c-0.6,0-1.2-0.1-1.8-0.4c-0.6-0.2-1.1-0.6-1.5-1c-0.4-0.4-0.8-0.9-1-1.5c-0.2-0.6-0.4-1.2-0.4-1.8c0-0.6,0.1-1.2,0.4-1.8
		c0.2-0.6,0.6-1.1,1-1.5c0.4-0.4,0.9-0.8,1.5-1c0.6-0.2,1.2-0.4,1.8-0.4c0.6,0,1.2,0.1,1.8,0.4c0.6,0.2,1.1,0.6,1.5,1
		c0.4,0.4,0.7,0.9,1,1.5C71.9,5.5,72,6.1,72,6.8L72,6.8z M67.4,9.3c0.3,0,0.7-0.1,1-0.2c0.3-0.1,0.6-0.3,0.8-0.5
		c0.2-0.2,0.4-0.5,0.5-0.8c0.1-0.3,0.2-0.6,0.2-1c0-0.3-0.1-0.7-0.2-1c-0.1-0.3-0.3-0.6-0.5-0.8c-0.2-0.2-0.5-0.4-0.8-0.5
		c-0.3-0.1-0.6-0.2-1-0.2c-0.3,0-0.7,0.1-1,0.2c-0.3,0.1-0.6,0.3-0.8,0.5c-0.2,0.2-0.4,0.5-0.5,0.8c-0.1,0.3-0.2,0.6-0.2,1
		c0,0.3,0.1,0.7,0.2,1c0.1,0.3,0.3,0.6,0.5,0.8c0.2,0.2,0.5,0.4,0.8,0.5C66.7,9.2,67,9.3,67.4,9.3z"/>
	<g>
		<g>
			<linearGradient id="SVGID_1_" gradientUnits="userSpaceOnUse" x1="-0.5764" y1="7.2203" x2="75.7861" y2="7.1482">
				<stop  offset="0" style="stop-color:#00FFFF"/>
				<stop  offset="1" style="stop-color:#FF00FF"/>
			</linearGradient>
			<path fill="url(#SVGID_1_)" d="M14.4,11.4c-0.1,0-0.1,0-0.2,0c-0.9,0-1.8-0.3-2.5-0.8c0,0,0,0-0.1,0c-0.1-0.1-0.2-0.1-0.3-0.2
				c0,0-0.1,0-0.1-0.1c0,0,0,0,0,0c0,0-0.1-0.1-0.1-0.1c-0.6-0.5-1-1.2-1.3-1.9c0,0,0,0,0,0C9.7,7.9,9.6,7.5,9.6,7.2c0,0,0,0,0,0
				c0-0.1,0-0.2,0-0.4c0-1.3,0.6-2.5,1.5-3.4c0,0,0.1-0.1,0.1-0.1c0,0,0,0,0,0c0.1-0.1,0.3-0.2,0.4-0.3L13,4.1
				c0.1,0,0.1,0.1,0.2,0.3c-1,0.4-1.7,1.4-1.7,2.5c0,1.5,1.2,2.7,2.6,2.7c0,0,0,0,0,0c0,0,0,0,0,0c-0.5,0.9-1.2,1.7-1.2,1.7
				C13.4,11.3,13.9,11.4,14.4,11.4z"/>
			<linearGradient id="SVGID_2_" gradientUnits="userSpaceOnUse" x1="-0.5772" y1="6.3857" x2="75.7853" y2="6.3136">
				<stop  offset="0" style="stop-color:#00FFFF"/>
				<stop  offset="1" style="stop-color:#FF00FF"/>
			</linearGradient>
			<path fill="url(#SVGID_2_)" d="M18.9,6.8c0,1.3-0.5,2.4-1.4,3.3c0,0-0.1,0.1-0.1,0.1c0,0-0.1,0.1-0.1,0.1
				c-0.1,0.1-0.3,0.2-0.4,0.3c0,0,0,0,0,0l-1.5-1.1c0,0-0.1-0.1-0.2-0.2c1-0.4,1.6-1.4,1.6-2.5c0-1.5-1.2-2.7-2.6-2.7c0,0,0,0,0,0
				c0,0,0,0,0,0h0c0.5-0.9,1.2-1.7,1.2-1.7c-0.3-0.1-0.6-0.2-1-0.2c0.9,0,1.7,0.3,2.4,0.8c0,0,0.1,0.1,0.1,0.1C17,3,17,3.1,17.1,3.1
				c0.1,0.1,0.1,0.1,0.2,0.2c0.6,0.5,1.1,1.2,1.3,2c0,0,0,0,0,0c0.1,0.4,0.2,0.7,0.2,1.1c0,0,0,0,0,0C18.9,6.6,18.9,6.7,18.9,6.8z"
				/>
			<linearGradient id="SVGID_3_" gradientUnits="userSpaceOnUse" x1="11.6343" y1="3.2028" x2="15.7191" y2="3.2028">
				<stop  offset="0" style="stop-color:#000000;stop-opacity:0.2"/>
				<stop  offset="1" style="stop-color:#000000;stop-opacity:0.7"/>
			</linearGradient>
			<path fill="url(#SVGID_3_)" d="M11.7,3l1.4,1.1c0,0,0.1,0.1,0.2,0.2c0.3-0.1,0.6-0.2,0.8-0.2c0,0,0,0,0,0c0,0,0,0,0,0
				c0,0,0,0,0,0c0,0,0,0,0,0c0,0,0,0,0,0c0.5-0.9,1.2-1.7,1.2-1.7c-0.2-0.1-0.5-0.2-0.8-0.2c-0.1,0-0.3,0-0.4,0c-0.1,0-0.2,0-0.3,0
				c0,0,0,0,0,0c0,0,0,0,0,0c0,0,0,0,0,0c0,0,0,0,0,0C13,2.2,12.3,2.5,11.7,3C11.7,2.9,11.7,3,11.7,3z"/>
			<linearGradient id="SVGID_4_" gradientUnits="userSpaceOnUse" x1="-0.5797" y1="3.7649" x2="75.7829" y2="3.6928">
				<stop  offset="0" style="stop-color:#00FFFF"/>
				<stop  offset="1" style="stop-color:#FF00FF"/>
			</linearGradient>
			<path fill="url(#SVGID_4_)" d="M15.4,2.4c0,0-0.7,0.8-1.2,1.7c-0.2,0.4-0.4,0.9-0.5,1.3c0,0-0.3-0.7-0.5-1.1
				c-0.1-0.1-0.1-0.2-0.2-0.3L11.6,3l0,0c0,0-0.6-0.5-0.7-0.5c0,0,2.1-0.4,3.6-0.3C14.8,2.2,15.1,2.3,15.4,2.4z"/>
			<linearGradient id="SVGID_5_" gradientUnits="userSpaceOnUse" x1="16.8686" y1="10.3756" x2="12.6945" y2="10.3756">
				<stop  offset="0" style="stop-color:#000000;stop-opacity:0.2"/>
				<stop  offset="1" style="stop-color:#000000;stop-opacity:0.7"/>
			</linearGradient>
			<path fill="url(#SVGID_5_)" d="M16.7,10.6l-1.4-1.1c0,0-0.1-0.1-0.2-0.2c-0.3,0.1-0.6,0.2-0.9,0.2c0,0,0,0,0,0c0,0,0,0,0,0
				c0,0,0,0-0.1,0c0,0,0,0,0,0c0,0,0,0,0,0c-0.5,0.9-1.2,1.7-1.2,1.7c0.4,0.2,0.9,0.3,1.5,0.3c0.1,0,0.1,0,0.2,0h0c0,0,0,0,0,0
				c0,0,0,0,0,0c0,0,0,0,0,0c0,0,0,0,0,0C15.4,11.4,16.2,11.1,16.7,10.6C16.8,10.6,16.7,10.6,16.7,10.6z"/>
			<linearGradient id="SVGID_6_" gradientUnits="userSpaceOnUse" x1="-0.574" y1="9.8175" x2="75.7886" y2="9.7454">
				<stop  offset="0" style="stop-color:#00FFFF"/>
				<stop  offset="1" style="stop-color:#FF00FF"/>
			</linearGradient>
			<path fill="url(#SVGID_6_)" d="M17.6,11.1c0,0-1.7,0.4-3.2,0.3c-0.5,0-1-0.1-1.4-0.3c0,0,0.7-0.8,1.2-1.7
				c0.3-0.4,0.5-0.9,0.5-1.3c0,0,0.3,0.7,0.5,1.1c0.1,0.1,0.1,0.2,0.2,0.2l1.5,1.1c0,0,0,0,0,0C17,10.7,17.5,11.1,17.6,11.1z"/>
		</g>
	</g>
</g>
</svg>
